STARTFONT 2.1
FONT -FontForge-Righteous-Book-R-Normal--20-200-72-72-P-108-ISO10646-1
SIZE 20 72 72
FONTBOUNDINGBOX 25 25 -3 -5
COMMENT "Generated by fontforge, http://fontforge.sourceforge.net"
COMMENT "Copyright (c) 2011 by Brian J. Bonislawsky DBA Astigmatic (AOETI) (astigma@astigmatic.com), with ReservedFont Name "Righteous""
STARTPROPERTIES 39
FOUNDRY "FontForge"
FAMILY_NAME "Righteous"
WEIGHT_NAME "Book"
SLANT "R"
SETWIDTH_NAME "Normal"
ADD_STYLE_NAME ""
PIXEL_SIZE 20
POINT_SIZE 200
RESOLUTION_X 72
RESOLUTION_Y 72
SPACING "P"
AVERAGE_WIDTH 108
CHARSET_REGISTRY "ISO10646"
CHARSET_ENCODING "1"
FONTNAME_REGISTRY ""
CHARSET_COLLECTIONS "ISO8859-2 ISO8859-9 ISO8859-4 ISO10646-1"
FONT_NAME "Righteous-Regular"
FACE_NAME "Righteous"
COPYRIGHT "Copyright (c) 2011 by Brian J. Bonislawsky DBA Astigmatic (AOETI) (astigma@astigmatic.com), with ReservedFont Name "Righteous""
FONT_VERSION "1.000"
FONT_ASCENT 16
FONT_DESCENT 4
UNDERLINE_POSITION -3
UNDERLINE_THICKNESS 1
X_HEIGHT 10
CAP_HEIGHT 13
RAW_ASCENT 799
RAW_DESCENT 200
NORM_SPACE 6
RELATIVE_WEIGHT 40
RELATIVE_SETWIDTH 50
SUPERSCRIPT_X 0
SUPERSCRIPT_Y 9
SUPERSCRIPT_SIZE 12
SUBSCRIPT_X 0
SUBSCRIPT_Y 2
SUBSCRIPT_SIZE 12
AVG_LOWERCASE_WIDTH 106
AVG_UPPERCASE_WIDTH 126
ENDPROPERTIES
CHARS 372
STARTCHAR space
ENCODING 32
SWIDTH 279 0
DWIDTH 6 0
BBX 1 1 0 0
BITMAP
00
ENDCHAR
STARTCHAR exclam
ENCODING 33
SWIDTH 274 0
DWIDTH 6 0
BBX 3 15 1 -1
BITMAP
E0
E0
E0
E0
E0
E0
E0
E0
60
60
60
40
E0
E0
60
ENDCHAR
STARTCHAR quotedbl
ENCODING 34
SWIDTH 409 0
DWIDTH 8 0
BBX 6 4 1 10
BITMAP
FC
EC
EC
CC
ENDCHAR
STARTCHAR numbersign
ENCODING 35
SWIDTH 561 0
DWIDTH 11 0
BBX 10 10 1 2
BITMAP
1980
1B80
7FC0
7F80
3700
3600
FF00
FF00
6E00
EC00
ENDCHAR
STARTCHAR dollar
ENCODING 36
SWIDTH 458 0
DWIDTH 9 0
BBX 7 14 1 0
BITMAP
18
18
18
7E
FE
C0
FE
7E
06
FE
FC
18
18
18
ENDCHAR
STARTCHAR percent
ENCODING 37
SWIDTH 685 0
DWIDTH 14 0
BBX 12 14 1 0
BITMAP
70E0
F8C0
D980
D980
DB00
FB00
7600
06E0
0DF0
1F30
1B30
3330
31F0
61E0
ENDCHAR
STARTCHAR ampersand
ENCODING 38
SWIDTH 485 0
DWIDTH 10 0
BBX 8 14 1 0
BITMAP
08
08
7F
7F
C0
C0
7C
7C
E0
C0
FF
7F
08
08
ENDCHAR
STARTCHAR quotesingle
ENCODING 39
SWIDTH 238 0
DWIDTH 5 0
BBX 3 4 1 10
BITMAP
E0
E0
E0
C0
ENDCHAR
STARTCHAR parenleft
ENCODING 40
SWIDTH 351 0
DWIDTH 7 0
BBX 5 18 1 -2
BITMAP
38
38
70
70
E0
E0
E0
E0
E0
E0
E0
E0
E0
E0
70
70
38
38
ENDCHAR
STARTCHAR parenright
ENCODING 41
SWIDTH 351 0
DWIDTH 7 0
BBX 5 18 1 -2
BITMAP
E0
E0
70
70
38
38
38
38
38
38
38
38
38
38
70
70
E0
E0
ENDCHAR
STARTCHAR asterisk
ENCODING 42
SWIDTH 589 0
DWIDTH 12 0
BBX 10 11 1 6
BITMAP
1C00
1C00
1C00
FD80
FFC0
7F80
1E00
3F00
7F80
7380
2000
ENDCHAR
STARTCHAR plus
ENCODING 43
SWIDTH 485 0
DWIDTH 10 0
BBX 8 8 1 3
BITMAP
18
18
18
FF
FF
18
18
18
ENDCHAR
STARTCHAR comma
ENCODING 44
SWIDTH 264 0
DWIDTH 5 0
BBX 3 5 1 -2
BITMAP
40
E0
E0
60
60
ENDCHAR
STARTCHAR hyphen
ENCODING 45
SWIDTH 528 0
DWIDTH 11 0
BBX 8 2 1 6
BITMAP
FF
FF
ENDCHAR
STARTCHAR period
ENCODING 46
SWIDTH 263 0
DWIDTH 5 0
BBX 3 4 1 -1
BITMAP
40
E0
E0
40
ENDCHAR
STARTCHAR slash
ENCODING 47
SWIDTH 490 0
DWIDTH 10 0
BBX 8 14 1 0
BITMAP
07
07
0E
0E
1C
1C
1C
38
38
70
70
60
E0
E0
ENDCHAR
STARTCHAR zero
ENCODING 48
SWIDTH 642 0
DWIDTH 13 0
BBX 11 14 1 0
BITMAP
1F00
7F80
7BC0
E0E0
E0E0
E0E0
E0E0
E0E0
E0E0
E0E0
E0E0
7BC0
7F80
1F00
ENDCHAR
STARTCHAR one
ENCODING 49
SWIDTH 317 0
DWIDTH 6 0
BBX 4 14 1 0
BITMAP
F0
F0
F0
70
70
70
70
70
70
70
70
70
70
70
ENDCHAR
STARTCHAR two
ENCODING 50
SWIDTH 570 0
DWIDTH 11 0
BBX 10 14 1 0
BITMAP
FE00
FF80
FF80
01C0
01C0
0380
7F80
7F00
F000
E000
E000
FF80
FF80
FF80
ENDCHAR
STARTCHAR three
ENCODING 51
SWIDTH 586 0
DWIDTH 12 0
BBX 10 14 1 0
BITMAP
FF00
FF80
FF80
01C0
01C0
03C0
3F80
3F80
03C0
01C0
01C0
FF80
FF80
FF00
ENDCHAR
STARTCHAR four
ENCODING 52
SWIDTH 630 0
DWIDTH 13 0
BBX 11 14 1 0
BITMAP
7000
7180
7180
6180
6180
E180
E180
E180
FFE0
FFE0
FFE0
0180
0180
0180
ENDCHAR
STARTCHAR five
ENCODING 53
SWIDTH 585 0
DWIDTH 12 0
BBX 10 14 1 0
BITMAP
7F80
7F80
7F80
E000
E000
FE00
FF80
FFC0
01C0
01C0
01C0
FFC0
FF80
FF00
ENDCHAR
STARTCHAR six
ENCODING 54
SWIDTH 615 0
DWIDTH 12 0
BBX 11 14 1 0
BITMAP
1E00
3C00
7800
7000
FF80
FFC0
F1C0
E1C0
E0E0
E0E0
E1C0
FBC0
7F80
3F00
ENDCHAR
STARTCHAR seven
ENCODING 55
SWIDTH 516 0
DWIDTH 10 0
BBX 10 14 0 0
BITMAP
FFC0
FFC0
FF80
0380
0380
0700
0700
0700
0E00
0E00
0E00
1C00
1C00
1C00
ENDCHAR
STARTCHAR eight
ENCODING 56
SWIDTH 618 0
DWIDTH 12 0
BBX 11 14 1 0
BITMAP
3F00
7F80
73C0
61C0
61C0
7F80
3F80
7FC0
E1C0
E0E0
E0E0
E1C0
7FC0
3F80
ENDCHAR
STARTCHAR nine
ENCODING 57
SWIDTH 616 0
DWIDTH 12 0
BBX 11 14 1 0
BITMAP
3F00
7F80
F3C0
E1C0
E1E0
E0E0
E1C0
F3C0
7FC0
3FC0
0380
0380
0700
0E00
ENDCHAR
STARTCHAR colon
ENCODING 58
SWIDTH 276 0
DWIDTH 6 0
BBX 3 9 1 -1
BITMAP
E0
E0
60
00
00
40
E0
E0
60
ENDCHAR
STARTCHAR semicolon
ENCODING 59
SWIDTH 276 0
DWIDTH 6 0
BBX 3 10 1 -2
BITMAP
E0
E0
60
00
00
40
E0
E0
60
60
ENDCHAR
STARTCHAR less
ENCODING 60
SWIDTH 478 0
DWIDTH 10 0
BBX 7 12 1 2
BITMAP
04
0E
1E
3C
38
70
F0
78
3C
1E
0E
04
ENDCHAR
STARTCHAR equal
ENCODING 61
SWIDTH 539 0
DWIDTH 11 0
BBX 8 6 1 4
BITMAP
FF
FF
00
00
FF
FF
ENDCHAR
STARTCHAR greater
ENCODING 62
SWIDTH 478 0
DWIDTH 10 0
BBX 8 11 1 2
BITMAP
60
F0
78
3C
1E
0F
1E
3C
78
F0
60
ENDCHAR
STARTCHAR question
ENCODING 63
SWIDTH 603 0
DWIDTH 12 0
BBX 10 15 1 -1
BITMAP
FF00
FF80
FFC0
01C0
00C0
01C0
0FC0
1F80
3C00
3800
3800
1000
3800
3800
1000
ENDCHAR
STARTCHAR at
ENCODING 64
SWIDTH 629 0
DWIDTH 13 0
BBX 11 11 1 0
BITMAP
1E00
3F80
71C0
CFC0
DF60
DB60
DF60
DFE0
E000
7A00
3E00
ENDCHAR
STARTCHAR A
ENCODING 65
SWIDTH 673 0
DWIDTH 13 0
BBX 11 14 1 0
BITMAP
1F00
3FC0
7FC0
70E0
E0E0
E060
E060
E060
FFE0
FFE0
FFE0
E060
E060
E060
ENDCHAR
STARTCHAR B
ENCODING 66
SWIDTH 666 0
DWIDTH 13 0
BBX 11 14 1 0
BITMAP
FF80
FFE0
FFE0
E060
E060
E0E0
FFE0
FFE0
E0E0
E060
E060
FFE0
FFE0
FF80
ENDCHAR
STARTCHAR C
ENCODING 67
SWIDTH 640 0
DWIDTH 13 0
BBX 11 14 1 0
BITMAP
0FC0
3FE0
7FE0
F040
E000
E000
C000
C000
E000
E000
F000
7FE0
3FE0
1FC0
ENDCHAR
STARTCHAR D
ENCODING 68
SWIDTH 653 0
DWIDTH 13 0
BBX 11 14 1 0
BITMAP
FE00
FF80
FFC0
E1E0
E0E0
E0E0
E060
E060
E0E0
E0E0
E1E0
FFC0
FF80
FE00
ENDCHAR
STARTCHAR E
ENCODING 69
SWIDTH 578 0
DWIDTH 12 0
BBX 10 14 1 0
BITMAP
FFC0
FFC0
FFC0
E000
E000
E000
FF00
FF00
E000
E000
E000
FFC0
FFC0
FFC0
ENDCHAR
STARTCHAR F
ENCODING 70
SWIDTH 562 0
DWIDTH 11 0
BBX 10 14 1 0
BITMAP
FFC0
FFC0
FFC0
E000
E000
E000
FE00
FE00
E000
E000
E000
E000
E000
E000
ENDCHAR
STARTCHAR G
ENCODING 71
SWIDTH 665 0
DWIDTH 13 0
BBX 11 14 1 0
BITMAP
0FC0
3FE0
7FE0
F040
E000
E000
C000
C060
E060
E060
F060
7DE0
3FE0
1FC0
ENDCHAR
STARTCHAR H
ENCODING 72
SWIDTH 689 0
DWIDTH 14 0
BBX 12 14 1 0
BITMAP
E070
E070
E070
E070
E070
E070
FFF0
FFF0
E070
E070
E070
E070
E070
E070
ENDCHAR
STARTCHAR I
ENCODING 73
SWIDTH 270 0
DWIDTH 5 0
BBX 3 14 1 0
BITMAP
E0
E0
E0
E0
E0
E0
E0
E0
E0
E0
E0
E0
E0
E0
ENDCHAR
STARTCHAR J
ENCODING 74
SWIDTH 416 0
DWIDTH 8 0
BBX 7 14 0 0
BITMAP
0E
0E
0E
0E
0E
0E
0E
0E
0E
0E
1E
FC
F8
F0
ENDCHAR
STARTCHAR K
ENCODING 75
SWIDTH 625 0
DWIDTH 13 0
BBX 11 14 1 0
BITMAP
E0E0
E1C0
E3C0
E380
E700
EE00
FE00
FF00
FF00
F380
F3C0
E1C0
E1E0
E0E0
ENDCHAR
STARTCHAR L
ENCODING 76
SWIDTH 562 0
DWIDTH 11 0
BBX 10 14 1 0
BITMAP
E000
E000
E000
E000
E000
E000
E000
E000
E000
E000
E000
FFC0
FFC0
FFC0
ENDCHAR
STARTCHAR M
ENCODING 77
SWIDTH 819 0
DWIDTH 16 0
BBX 14 14 1 0
BITMAP
3EF0
7FF8
FFFC
E39C
E39C
E39C
E39C
E39C
E39C
E39C
E39C
E39C
E39C
E39C
ENDCHAR
STARTCHAR N
ENCODING 78
SWIDTH 689 0
DWIDTH 14 0
BBX 12 14 1 0
BITMAP
F070
F070
F870
F870
FC70
EE70
EE70
E770
E770
E3F0
E3F0
E1F0
E0F0
E0F0
ENDCHAR
STARTCHAR O
ENCODING 79
SWIDTH 777 0
DWIDTH 16 0
BBX 14 14 1 0
BITMAP
0FC0
3FE0
7FF0
F078
E03C
E01C
C01C
C01C
E01C
E03C
F038
7FF0
3FF0
1FC0
ENDCHAR
STARTCHAR P
ENCODING 80
SWIDTH 642 0
DWIDTH 13 0
BBX 11 14 1 0
BITMAP
FF00
FFC0
FFE0
E0E0
E0E0
E060
E060
E0E0
FFE0
FFC0
FF80
E000
E000
E000
ENDCHAR
STARTCHAR Q
ENCODING 81
SWIDTH 777 0
DWIDTH 16 0
BBX 14 17 1 -3
BITMAP
0FC0
3FE0
7FF0
F078
E03C
E01C
C01C
C01C
E01C
E03C
F038
7FF0
3FF0
1FC0
01E0
00E0
0070
ENDCHAR
STARTCHAR R
ENCODING 82
SWIDTH 651 0
DWIDTH 13 0
BBX 11 14 1 0
BITMAP
FF00
FFC0
FFE0
E0E0
E0E0
E060
E060
E0E0
FFE0
FFC0
FF80
E380
E1C0
E1C0
ENDCHAR
STARTCHAR S
ENCODING 83
SWIDTH 610 0
DWIDTH 12 0
BBX 12 14 0 0
BITMAP
1FE0
7FE0
7FE0
6000
E000
7000
7FC0
3FE0
00E0
0070
0070
7FE0
7FE0
7F80
ENDCHAR
STARTCHAR T
ENCODING 84
SWIDTH 578 0
DWIDTH 12 0
BBX 11 14 0 0
BITMAP
FFE0
FFE0
FFE0
0E00
0E00
0E00
0E00
0E00
0E00
0E00
0E00
0E00
0E00
0E00
ENDCHAR
STARTCHAR U
ENCODING 85
SWIDTH 673 0
DWIDTH 13 0
BBX 11 14 1 0
BITMAP
E060
E060
E060
E060
E060
E060
E060
E060
E060
E0E0
70E0
7FC0
3FC0
1F00
ENDCHAR
STARTCHAR V
ENCODING 86
SWIDTH 602 0
DWIDTH 12 0
BBX 12 14 0 0
BITMAP
E070
70F0
70E0
70E0
79E0
39C0
39C0
39C0
1F80
1F80
1F80
0F00
0F00
0F00
ENDCHAR
STARTCHAR W
ENCODING 87
SWIDTH 819 0
DWIDTH 16 0
BBX 14 14 1 0
BITMAP
E39C
E39C
E39C
E39C
E39C
E39C
E39C
E39C
E39C
E39C
E39C
FFFC
7FF8
3EF0
ENDCHAR
STARTCHAR X
ENCODING 88
SWIDTH 608 0
DWIDTH 12 0
BBX 12 14 0 0
BITMAP
F0F0
70E0
39E0
39C0
1F80
1F80
0F00
0F00
1F80
1F80
39C0
39E0
70E0
F0F0
ENDCHAR
STARTCHAR Y
ENCODING 89
SWIDTH 620 0
DWIDTH 12 0
BBX 11 14 1 0
BITMAP
C0E0
C0E0
C0E0
C0E0
C0E0
E0E0
F1C0
7FC0
3F80
1E00
0E00
0E00
0E00
0E00
ENDCHAR
STARTCHAR Z
ENCODING 90
SWIDTH 586 0
DWIDTH 12 0
BBX 11 14 0 0
BITMAP
FFE0
FFE0
FFC0
0380
0380
0700
0F00
0E00
1E00
1C00
3C00
3FE0
7FE0
7FE0
ENDCHAR
STARTCHAR bracketleft
ENCODING 91
SWIDTH 380 0
DWIDTH 8 0
BBX 6 18 1 -2
BITMAP
FC
FC
FC
E0
E0
E0
E0
E0
E0
E0
E0
E0
E0
E0
E0
FC
FC
FC
ENDCHAR
STARTCHAR backslash
ENCODING 92
SWIDTH 490 0
DWIDTH 10 0
BBX 8 14 1 0
BITMAP
E0
E0
60
70
70
38
38
1C
1C
1C
0E
0E
07
07
ENDCHAR
STARTCHAR bracketright
ENCODING 93
SWIDTH 380 0
DWIDTH 8 0
BBX 5 18 1 -2
BITMAP
F8
F8
F8
18
18
18
18
18
18
18
18
18
18
18
18
F8
F8
F8
ENDCHAR
STARTCHAR asciicircum
ENCODING 94
SWIDTH 293 0
DWIDTH 6 0
BBX 6 4 0 10
BITMAP
20
78
FC
48
ENDCHAR
STARTCHAR underscore
ENCODING 95
SWIDTH 598 0
DWIDTH 12 0
BBX 8 3 2 -5
BITMAP
FF
FF
FF
ENDCHAR
STARTCHAR grave
ENCODING 96
SWIDTH 225 0
DWIDTH 5 0
BBX 4 4 0 10
BITMAP
40
E0
70
30
ENDCHAR
STARTCHAR a
ENCODING 97
SWIDTH 607 0
DWIDTH 12 0
BBX 11 11 0 0
BITMAP
0F00
3FA0
7FE0
71E0
60E0
E0E0
E0E0
70E0
7FE0
3FE0
1F20
ENDCHAR
STARTCHAR b
ENCODING 98
SWIDTH 597 0
DWIDTH 12 0
BBX 10 15 1 0
BITMAP
C000
C000
C000
C000
DE00
FF80
FFC0
E1C0
E0C0
E0C0
E0C0
E1C0
7FC0
7F80
3F00
ENDCHAR
STARTCHAR c
ENCODING 99
SWIDTH 521 0
DWIDTH 10 0
BBX 10 11 0 0
BITMAP
0F00
3F80
7FC0
7180
6000
E000
E000
7080
7FC0
3FC0
1F00
ENDCHAR
STARTCHAR d
ENCODING 100
SWIDTH 606 0
DWIDTH 12 0
BBX 11 15 0 0
BITMAP
00E0
00E0
00E0
00E0
0FE0
3FE0
7FE0
71E0
60E0
E0E0
E0E0
70E0
7FE0
3FE0
1F20
ENDCHAR
STARTCHAR e
ENCODING 101
SWIDTH 524 0
DWIDTH 11 0
BBX 10 11 0 0
BITMAP
0F00
3F80
7FC0
7380
6700
E700
6E00
7C80
7BC0
3FC0
1F00
ENDCHAR
STARTCHAR f
ENCODING 102
SWIDTH 395 0
DWIDTH 8 0
BBX 8 16 0 0
BITMAP
07
1F
3F
38
30
30
FF
FF
30
30
30
30
30
30
30
30
ENDCHAR
STARTCHAR g
ENCODING 103
SWIDTH 607 0
DWIDTH 12 0
BBX 11 15 0 -4
BITMAP
0F00
3FA0
7FE0
71E0
60E0
E0E0
E0E0
70E0
7FE0
3FE0
1FE0
00E0
0FC0
0FC0
0F00
ENDCHAR
STARTCHAR h
ENCODING 104
SWIDTH 562 0
DWIDTH 11 0
BBX 9 15 1 0
BITMAP
E000
E000
E000
E000
EC00
FF00
FF80
E380
E180
E180
E180
E180
E180
E180
E180
ENDCHAR
STARTCHAR i
ENCODING 105
SWIDTH 235 0
DWIDTH 5 0
BBX 3 15 1 0
BITMAP
E0
E0
E0
00
00
E0
E0
E0
E0
E0
E0
E0
E0
E0
E0
ENDCHAR
STARTCHAR j
ENCODING 106
SWIDTH 237 0
DWIDTH 5 0
BBX 7 19 -3 -4
BITMAP
0E
0E
0E
00
00
0E
0E
0E
0E
0E
0E
0E
0E
0E
0E
1C
FC
F8
F0
ENDCHAR
STARTCHAR k
ENCODING 107
SWIDTH 539 0
DWIDTH 11 0
BBX 9 15 1 0
BITMAP
E000
E000
E000
E000
E000
E380
E700
EE00
EE00
FE00
FE00
F700
F700
E380
E380
ENDCHAR
STARTCHAR l
ENCODING 108
SWIDTH 235 0
DWIDTH 5 0
BBX 3 15 1 0
BITMAP
E0
E0
E0
E0
E0
E0
E0
E0
E0
E0
E0
E0
E0
E0
E0
ENDCHAR
STARTCHAR m
ENCODING 109
SWIDTH 762 0
DWIDTH 15 0
BBX 13 11 1 0
BITMAP
18C0
FFF0
FFF8
E738
E718
E718
E718
E718
E718
E718
E718
ENDCHAR
STARTCHAR n
ENCODING 110
SWIDTH 562 0
DWIDTH 11 0
BBX 9 11 1 0
BITMAP
1C00
BF00
FF80
E380
E180
E180
E180
E180
E180
E180
E180
ENDCHAR
STARTCHAR o
ENCODING 111
SWIDTH 579 0
DWIDTH 12 0
BBX 11 11 0 0
BITMAP
0F00
3F80
7FC0
70E0
60E0
E0E0
E0E0
70E0
7FC0
3FC0
1F00
ENDCHAR
STARTCHAR p
ENCODING 112
SWIDTH 608 0
DWIDTH 12 0
BBX 11 15 1 -4
BITMAP
0E00
BF80
FFC0
F1C0
E0E0
E0E0
E0E0
E1C0
FBC0
FF80
FF00
E000
E000
E000
E000
ENDCHAR
STARTCHAR q
ENCODING 113
SWIDTH 607 0
DWIDTH 12 0
BBX 11 15 0 -4
BITMAP
0E00
3FA0
7FE0
71E0
60E0
E0E0
60E0
70E0
7FE0
3FE0
1FE0
00E0
00E0
00E0
00E0
ENDCHAR
STARTCHAR r
ENCODING 114
SWIDTH 414 0
DWIDTH 8 0
BBX 7 10 1 0
BITMAP
BE
FE
F0
E0
E0
E0
E0
E0
E0
E0
ENDCHAR
STARTCHAR s
ENCODING 115
SWIDTH 523 0
DWIDTH 10 0
BBX 9 10 1 0
BITMAP
7F00
FF00
C000
E000
FF00
7F80
0380
FF80
FF80
FF00
ENDCHAR
STARTCHAR t
ENCODING 116
SWIDTH 437 0
DWIDTH 9 0
BBX 8 15 0 0
BITMAP
30
30
30
30
30
FF
FF
30
30
30
30
38
3F
1F
0F
ENDCHAR
STARTCHAR u
ENCODING 117
SWIDTH 562 0
DWIDTH 11 0
BBX 9 10 1 0
BITMAP
E180
E180
E180
E180
E180
E180
E380
F780
7F80
3E80
ENDCHAR
STARTCHAR v
ENCODING 118
SWIDTH 532 0
DWIDTH 11 0
BBX 10 10 0 0
BITMAP
E1C0
71C0
71C0
3380
3B80
3B00
1F00
1F00
1E00
0E00
ENDCHAR
STARTCHAR w
ENCODING 119
SWIDTH 756 0
DWIDTH 15 0
BBX 13 10 1 0
BITMAP
E718
E718
E718
E718
E718
E718
E718
FFB8
7FF8
3DE0
ENDCHAR
STARTCHAR x
ENCODING 120
SWIDTH 528 0
DWIDTH 11 0
BBX 11 11 0 0
BITMAP
E1E0
71C0
7B80
3F00
1F00
0E00
1E00
3F00
3B80
73C0
F1C0
ENDCHAR
STARTCHAR y
ENCODING 121
SWIDTH 562 0
DWIDTH 11 0
BBX 9 14 1 -4
BITMAP
E180
E180
E180
E180
E180
E180
E380
F780
7F80
3F80
0380
1F00
1F00
1C00
ENDCHAR
STARTCHAR z
ENCODING 122
SWIDTH 481 0
DWIDTH 10 0
BBX 9 10 0 0
BITMAP
FF80
FF00
0700
0E00
0C00
1C00
3800
3F80
7F80
7F80
ENDCHAR
STARTCHAR braceleft
ENCODING 123
SWIDTH 466 0
DWIDTH 9 0
BBX 9 18 0 -2
BITMAP
0F80
1F80
1F80
1C00
1C00
1C00
1C00
FC00
F800
F800
3C00
1C00
1C00
1C00
1C00
1F80
1F80
0F80
ENDCHAR
STARTCHAR bar
ENCODING 124
SWIDTH 267 0
DWIDTH 5 0
BBX 3 18 1 -2
BITMAP
E0
E0
E0
E0
E0
E0
E0
E0
E0
E0
E0
E0
E0
E0
E0
E0
E0
E0
ENDCHAR
STARTCHAR braceright
ENCODING 125
SWIDTH 466 0
DWIDTH 9 0
BBX 8 18 1 -2
BITMAP
F0
F8
F8
18
18
18
18
1F
0F
1F
1C
18
18
18
18
F8
F8
F0
ENDCHAR
STARTCHAR asciitilde
ENCODING 126
SWIDTH 451 0
DWIDTH 9 0
BBX 7 4 1 5
BITMAP
F6
FE
DE
80
ENDCHAR
STARTCHAR nonbreakingspace
ENCODING 160
SWIDTH 279 0
DWIDTH 6 0
BBX 1 1 0 0
BITMAP
00
ENDCHAR
STARTCHAR exclamdown
ENCODING 161
SWIDTH 274 0
DWIDTH 6 0
BBX 3 15 1 -3
BITMAP
60
E0
E0
00
60
60
60
E0
E0
E0
E0
E0
E0
E0
E0
ENDCHAR
STARTCHAR cent
ENCODING 162
SWIDTH 462 0
DWIDTH 9 0
BBX 7 14 1 0
BITMAP
18
18
18
7E
FE
C0
C0
C0
E6
7E
3C
18
18
18
ENDCHAR
STARTCHAR sterling
ENCODING 163
SWIDTH 681 0
DWIDTH 14 0
BBX 12 14 1 0
BITMAP
0E00
1E00
3E00
3800
3000
3000
FC00
FC00
FC00
3000
3070
3FF0
3FE0
3FC0
ENDCHAR
STARTCHAR currency
ENCODING 164
SWIDTH 454 0
DWIDTH 9 0
BBX 9 8 0 3
BITMAP
4100
FF80
7F00
6300
6300
2300
7F00
6B00
ENDCHAR
STARTCHAR yen
ENCODING 165
SWIDTH 653 0
DWIDTH 13 0
BBX 11 14 1 0
BITMAP
E0E0
E0E0
E0E0
E0E0
E0E0
E0E0
F1E0
7FC0
3F80
FFE0
FFE0
0E00
0E00
0E00
ENDCHAR
STARTCHAR brokenbar
ENCODING 166
SWIDTH 269 0
DWIDTH 5 0
BBX 3 18 1 -2
BITMAP
E0
E0
E0
E0
E0
E0
E0
E0
00
00
E0
E0
E0
E0
E0
E0
E0
E0
ENDCHAR
STARTCHAR section
ENCODING 167
SWIDTH 569 0
DWIDTH 11 0
BBX 9 14 1 0
BITMAP
3F80
7F80
FF80
E000
FF00
FF80
E180
E180
FF80
7F80
0180
FF80
FF80
FF00
ENDCHAR
STARTCHAR dieresis
ENCODING 168
SWIDTH 300 0
DWIDTH 6 0
BBX 6 2 0 11
BITMAP
CC
CC
ENDCHAR
STARTCHAR copyright
ENCODING 169
SWIDTH 655 0
DWIDTH 13 0
BBX 11 12 1 1
BITMAP
0E00
3F80
60C0
DF60
F020
B020
A020
F020
DF60
64C0
3F80
0E00
ENDCHAR
STARTCHAR ordfeminine
ENCODING 170
SWIDTH 451 0
DWIDTH 9 0
BBX 7 9 1 5
BITMAP
7A
EE
C6
C6
CE
7A
00
00
FE
ENDCHAR
STARTCHAR guillemotleft
ENCODING 171
SWIDTH 704 0
DWIDTH 14 0
BBX 12 10 1 0
BITMAP
0820
1C70
38E0
71C0
E380
F3C0
79E0
3CF0
1C70
0820
ENDCHAR
STARTCHAR logicalnot
ENCODING 172
SWIDTH 529 0
DWIDTH 11 0
BBX 8 4 1 4
BITMAP
FF
FF
03
03
ENDCHAR
STARTCHAR uni00AD
ENCODING 173
SWIDTH 418 0
DWIDTH 8 0
BBX 6 2 1 6
BITMAP
FC
FC
ENDCHAR
STARTCHAR registered
ENCODING 174
SWIDTH 439 0
DWIDTH 9 0
BBX 7 7 1 7
BITMAP
78
F4
AA
AA
BA
EC
78
ENDCHAR
STARTCHAR macron
ENCODING 175
SWIDTH 247 0
DWIDTH 5 0
BBX 5 2 0 11
BITMAP
F8
F8
ENDCHAR
STARTCHAR degree
ENCODING 176
SWIDTH 381 0
DWIDTH 8 0
BBX 6 6 1 8
BITMAP
30
F8
DC
CC
FC
78
ENDCHAR
STARTCHAR plusminus
ENCODING 177
SWIDTH 516 0
DWIDTH 10 0
BBX 8 11 1 0
BITMAP
1C
1C
1C
FF
FF
1C
1C
00
FF
FF
FF
ENDCHAR
STARTCHAR twosuperior
ENCODING 178
SWIDTH 355 0
DWIDTH 7 0
BBX 5 7 1 7
BITMAP
F0
F8
38
F8
C0
F8
F8
ENDCHAR
STARTCHAR threesuperior
ENCODING 179
SWIDTH 354 0
DWIDTH 7 0
BBX 5 7 1 7
BITMAP
F0
F8
78
78
18
F8
F0
ENDCHAR
STARTCHAR acute
ENCODING 180
SWIDTH 225 0
DWIDTH 5 0
BBX 4 4 0 10
BITMAP
20
70
F0
40
ENDCHAR
STARTCHAR mu
ENCODING 181
SWIDTH 571 0
DWIDTH 11 0
BBX 10 14 1 -4
BITMAP
E1C0
E1C0
E1C0
E1C0
E1C0
E1C0
E1C0
FFC0
FFC0
FE40
E000
C000
C000
C000
ENDCHAR
STARTCHAR paragraph
ENCODING 182
SWIDTH 808 0
DWIDTH 16 0
BBX 14 14 1 0
BITMAP
1FFC
3FFC
7FFC
F39C
E39C
E39C
E39C
E39C
7F9C
7F9C
1F9C
039C
039C
039C
ENDCHAR
STARTCHAR periodcentered
ENCODING 183
SWIDTH 261 0
DWIDTH 5 0
BBX 3 4 1 5
BITMAP
40
E0
E0
40
ENDCHAR
STARTCHAR cedilla
ENCODING 184
SWIDTH 208 0
DWIDTH 4 0
BBX 4 5 0 -4
BITMAP
20
20
70
B0
F0
ENDCHAR
STARTCHAR onesuperior
ENCODING 185
SWIDTH 231 0
DWIDTH 5 0
BBX 2 7 1 7
BITMAP
C0
C0
C0
C0
C0
C0
C0
ENDCHAR
STARTCHAR ordmasculine
ENCODING 186
SWIDTH 432 0
DWIDTH 9 0
BBX 7 9 1 5
BITMAP
78
EC
C4
C4
CC
7C
00
00
FE
ENDCHAR
STARTCHAR guillemotright
ENCODING 187
SWIDTH 703 0
DWIDTH 14 0
BBX 12 10 1 0
BITMAP
4100
E380
71C0
38E0
1C70
1C70
79E0
F3C0
E380
4100
ENDCHAR
STARTCHAR onequarter
ENCODING 188
SWIDTH 648 0
DWIDTH 13 0
BBX 11 14 1 0
BITMAP
E180
E180
6300
6700
6600
6E00
6C00
1B00
1B60
3360
3360
63E0
63E0
C060
ENDCHAR
STARTCHAR onehalf
ENCODING 189
SWIDTH 637 0
DWIDTH 13 0
BBX 11 14 1 0
BITMAP
E180
E180
6300
6700
6600
6E00
6C00
1BC0
1BE0
3060
33E0
6300
63E0
C3E0
ENDCHAR
STARTCHAR threequarters
ENCODING 190
SWIDTH 708 0
DWIDTH 14 0
BBX 12 14 1 0
BITMAP
F0C0
F8C0
7980
7980
1B00
FB00
F600
0780
0DB0
1DB0
19B0
31F0
31F0
6030
ENDCHAR
STARTCHAR questiondown
ENCODING 191
SWIDTH 602 0
DWIDTH 12 0
BBX 10 15 1 -3
BITMAP
0700
0700
0700
0000
0700
0700
1F00
7E00
FC00
E000
C000
E000
FFC0
7FC0
3FC0
ENDCHAR
STARTCHAR Agrave
ENCODING 192
SWIDTH 673 0
DWIDTH 13 0
BBX 11 19 1 0
BITMAP
1000
1800
1C00
0400
0000
1F00
3FC0
7FC0
70E0
E0E0
E060
E060
E060
FFE0
FFE0
FFE0
E060
E060
E060
ENDCHAR
STARTCHAR Aacute
ENCODING 193
SWIDTH 673 0
DWIDTH 13 0
BBX 11 19 1 0
BITMAP
0100
0380
0700
0600
0000
1F00
3FC0
7FC0
70E0
E0E0
E060
E060
E060
FFE0
FFE0
FFE0
E060
E060
E060
ENDCHAR
STARTCHAR Acircumflex
ENCODING 194
SWIDTH 673 0
DWIDTH 13 0
BBX 11 19 1 0
BITMAP
0400
0E00
1F00
0900
0000
1F00
3FC0
7FC0
70E0
E0E0
E060
E060
E060
FFE0
FFE0
FFE0
E060
E060
E060
ENDCHAR
STARTCHAR Atilde
ENCODING 195
SWIDTH 673 0
DWIDTH 13 0
BBX 11 18 1 0
BITMAP
1D80
1F80
1F80
1800
1F00
3FC0
7FC0
70E0
E0E0
E060
E060
E060
FFE0
FFE0
FFE0
E060
E060
E060
ENDCHAR
STARTCHAR Adieresis
ENCODING 196
SWIDTH 673 0
DWIDTH 13 0
BBX 11 17 1 0
BITMAP
1980
1B80
0000
1F00
3FC0
7FC0
70E0
E0E0
E060
E060
E060
FFE0
FFE0
FFE0
E060
E060
E060
ENDCHAR
STARTCHAR Aring
ENCODING 197
SWIDTH 673 0
DWIDTH 13 0
BBX 11 17 1 0
BITMAP
0E00
0B00
0F00
1F00
3FC0
7FC0
70E0
E0E0
E060
E060
E060
FFE0
FFE0
FFE0
E060
E060
E060
ENDCHAR
STARTCHAR AE
ENCODING 198
SWIDTH 988 0
DWIDTH 20 0
BBX 18 14 1 0
BITMAP
1FFFC0
3FFFC0
7FFFC0
706000
E06000
E06000
E07F00
E07F00
FFE000
FFE000
FFE000
E07FC0
E07FC0
E07FC0
ENDCHAR
STARTCHAR Ccedilla
ENCODING 199
SWIDTH 640 0
DWIDTH 13 0
BBX 11 18 1 -4
BITMAP
0FC0
3FE0
7FE0
F040
E000
E000
C000
C000
E000
E000
F000
7FE0
3FE0
1FC0
0400
0600
0300
1E00
ENDCHAR
STARTCHAR Egrave
ENCODING 200
SWIDTH 578 0
DWIDTH 12 0
BBX 10 19 1 0
BITMAP
1000
3800
1C00
0C00
0000
FFC0
FFC0
FFC0
E000
E000
E000
FF00
FF00
E000
E000
E000
FFC0
FFC0
FFC0
ENDCHAR
STARTCHAR Eacute
ENCODING 201
SWIDTH 578 0
DWIDTH 12 0
BBX 10 19 1 0
BITMAP
0200
0700
0F00
0400
0000
FFC0
FFC0
FFC0
E000
E000
E000
FF00
FF00
E000
E000
E000
FFC0
FFC0
FFC0
ENDCHAR
STARTCHAR Ecircumflex
ENCODING 202
SWIDTH 578 0
DWIDTH 12 0
BBX 10 19 1 0
BITMAP
0400
0E00
3F00
1200
0000
FFC0
FFC0
FFC0
E000
E000
E000
FF00
FF00
E000
E000
E000
FFC0
FFC0
FFC0
ENDCHAR
STARTCHAR Edieresis
ENCODING 203
SWIDTH 578 0
DWIDTH 12 0
BBX 10 17 1 0
BITMAP
3300
3B00
0000
FFC0
FFC0
FFC0
E000
E000
E000
FF00
FF00
E000
E000
E000
FFC0
FFC0
FFC0
ENDCHAR
STARTCHAR Igrave
ENCODING 204
SWIDTH 270 0
DWIDTH 5 0
BBX 4 18 0 0
BITMAP
C0
F0
20
00
70
70
70
70
70
70
70
70
70
70
70
70
70
70
ENDCHAR
STARTCHAR Iacute
ENCODING 205
SWIDTH 270 0
DWIDTH 5 0
BBX 5 19 1 0
BITMAP
10
38
70
60
00
E0
E0
E0
E0
E0
E0
E0
E0
E0
E0
E0
E0
E0
E0
ENDCHAR
STARTCHAR Icircumflex
ENCODING 206
SWIDTH 270 0
DWIDTH 5 0
BBX 5 19 0 0
BITMAP
20
70
F8
48
00
70
70
70
70
70
70
70
70
70
70
70
70
70
70
ENDCHAR
STARTCHAR Idieresis
ENCODING 207
SWIDTH 270 0
DWIDTH 5 0
BBX 6 17 0 0
BITMAP
DC
DC
00
70
70
70
70
70
70
70
70
70
70
70
70
70
70
ENDCHAR
STARTCHAR Eth
ENCODING 208
SWIDTH 672 0
DWIDTH 13 0
BBX 13 14 0 0
BITMAP
3F80
3FC0
3FE0
38F0
3870
3838
FC38
FC38
3838
3870
38F0
3FE0
3FC0
3F00
ENDCHAR
STARTCHAR Ntilde
ENCODING 209
SWIDTH 689 0
DWIDTH 14 0
BBX 12 18 1 0
BITMAP
0D80
1F80
1B80
1800
F070
F070
F870
F870
FC70
EE70
EE70
E770
E770
E3F0
E3F0
E1F0
E0F0
E0F0
ENDCHAR
STARTCHAR Ograve
ENCODING 210
SWIDTH 777 0
DWIDTH 16 0
BBX 14 18 1 0
BITMAP
0E00
0F00
0200
0000
0FC0
3FE0
7FF0
F078
E03C
E01C
C01C
C01C
E01C
E03C
F038
7FF0
3FF0
1FC0
ENDCHAR
STARTCHAR Oacute
ENCODING 211
SWIDTH 777 0
DWIDTH 16 0
BBX 14 19 1 0
BITMAP
0080
01C0
03C0
0300
0000
0FC0
3FE0
7FF0
F078
E03C
E01C
C01C
C01C
E01C
E03C
F038
7FF0
3FF0
1FC0
ENDCHAR
STARTCHAR Ocircumflex
ENCODING 212
SWIDTH 777 0
DWIDTH 16 0
BBX 14 19 1 0
BITMAP
0200
0700
0F80
0480
0000
0FC0
3FE0
7FF0
F078
E03C
E01C
C01C
C01C
E01C
E03C
F038
7FF0
3FF0
1FC0
ENDCHAR
STARTCHAR Otilde
ENCODING 213
SWIDTH 777 0
DWIDTH 16 0
BBX 14 18 1 0
BITMAP
0EC0
0FC0
0FC0
0C00
0FC0
3FE0
7FF0
F078
E03C
E01C
C01C
C01C
E01C
E03C
F038
7FF0
3FF0
1FC0
ENDCHAR
STARTCHAR Odieresis
ENCODING 214
SWIDTH 777 0
DWIDTH 16 0
BBX 14 17 1 0
BITMAP
0CC0
0DC0
0000
0FC0
3FE0
7FF0
F078
E03C
E01C
C01C
C01C
E01C
E03C
F038
7FF0
3FF0
1FC0
ENDCHAR
STARTCHAR multiply
ENCODING 215
SWIDTH 479 0
DWIDTH 10 0
BBX 7 8 1 3
BITMAP
44
EE
FE
7C
7C
FE
6E
04
ENDCHAR
STARTCHAR Oslash
ENCODING 216
SWIDTH 777 0
DWIDTH 16 0
BBX 14 14 1 0
BITMAP
0FF8
3FF0
7FF0
F0F8
E1FC
E19C
C31C
C71C
EE1C
EC3C
FC38
7FF0
7FF0
7FC0
ENDCHAR
STARTCHAR Ugrave
ENCODING 217
SWIDTH 673 0
DWIDTH 13 0
BBX 11 19 1 0
BITMAP
0800
1C00
1E00
0400
0000
E060
E060
E060
E060
E060
E060
E060
E060
E060
E0E0
70E0
7FC0
3FC0
1F00
ENDCHAR
STARTCHAR Uacute
ENCODING 218
SWIDTH 673 0
DWIDTH 13 0
BBX 11 19 1 0
BITMAP
0100
0380
0780
0600
0000
E060
E060
E060
E060
E060
E060
E060
E060
E060
E0E0
70E0
7FC0
3FC0
1F00
ENDCHAR
STARTCHAR Ucircumflex
ENCODING 219
SWIDTH 673 0
DWIDTH 13 0
BBX 11 19 1 0
BITMAP
0400
0E00
1F00
0900
0000
E060
E060
E060
E060
E060
E060
E060
E060
E060
E0E0
70E0
7FC0
3FC0
1F00
ENDCHAR
STARTCHAR Udieresis
ENCODING 220
SWIDTH 673 0
DWIDTH 13 0
BBX 11 17 1 0
BITMAP
1980
1B80
0000
E060
E060
E060
E060
E060
E060
E060
E060
E060
E0E0
70E0
7FC0
3FC0
1F00
ENDCHAR
STARTCHAR Yacute
ENCODING 221
SWIDTH 620 0
DWIDTH 12 0
BBX 11 18 1 0
BITMAP
0700
0F00
0400
0000
C0E0
C0E0
C0E0
C0E0
C0E0
E0E0
F1C0
7FC0
3F80
1E00
0E00
0E00
0E00
0E00
ENDCHAR
STARTCHAR Thorn
ENCODING 222
SWIDTH 637 0
DWIDTH 13 0
BBX 11 16 1 -1
BITMAP
E000
E000
FE00
FF80
FFC0
E1E0
E0E0
E060
E060
E0E0
E1E0
FFC0
FF80
FE00
E000
E000
ENDCHAR
STARTCHAR germandbls
ENCODING 223
SWIDTH 813 0
DWIDTH 16 0
BBX 16 16 0 0
BITMAP
07C0
1FF0
3FF8
3838
3038
3078
F1F0
F3E0
3300
3380
33FE
31FF
3007
33FF
33FF
33FE
ENDCHAR
STARTCHAR agrave
ENCODING 224
SWIDTH 607 0
DWIDTH 12 0
BBX 11 15 0 0
BITMAP
1C00
1E00
0400
0000
0F00
3FA0
7FE0
71E0
60E0
E0E0
E0E0
70E0
7FE0
3FE0
1F20
ENDCHAR
STARTCHAR aacute
ENCODING 225
SWIDTH 607 0
DWIDTH 12 0
BBX 11 16 0 0
BITMAP
0100
0380
0700
0600
0000
0F00
3FA0
7FE0
71E0
60E0
E0E0
E0E0
70E0
7FE0
3FE0
1F20
ENDCHAR
STARTCHAR acircumflex
ENCODING 226
SWIDTH 607 0
DWIDTH 12 0
BBX 11 15 0 0
BITMAP
0400
0E00
1F00
0900
0F00
3FA0
7FE0
71E0
60E0
E0E0
E0E0
70E0
7FE0
3FE0
1F20
ENDCHAR
STARTCHAR atilde
ENCODING 227
SWIDTH 607 0
DWIDTH 12 0
BBX 11 15 0 0
BITMAP
1D80
1F80
1F80
1800
0F00
3FA0
7FE0
71E0
60E0
E0E0
E0E0
70E0
7FE0
3FE0
1F20
ENDCHAR
STARTCHAR adieresis
ENCODING 228
SWIDTH 607 0
DWIDTH 12 0
BBX 11 14 0 0
BITMAP
1980
1B80
0000
0F00
3FA0
7FE0
71E0
60E0
E0E0
E0E0
70E0
7FE0
3FE0
1F20
ENDCHAR
STARTCHAR aring
ENCODING 229
SWIDTH 607 0
DWIDTH 12 0
BBX 11 15 0 0
BITMAP
0E00
0B00
0F00
0600
0F00
3FA0
7FE0
71E0
60E0
E0E0
E0E0
70E0
7FE0
3FE0
1F20
ENDCHAR
STARTCHAR ae
ENCODING 230
SWIDTH 976 0
DWIDTH 20 0
BBX 19 11 0 0
BITMAP
0F0780
3FBFC0
7FFFE0
71F9C0
60F380
E0F380
E0F700
70FE40
7FFFE0
3FFFE0
1F2F80
ENDCHAR
STARTCHAR ccedilla
ENCODING 231
SWIDTH 521 0
DWIDTH 10 0
BBX 10 15 0 -4
BITMAP
0F00
3F80
7FC0
7180
6000
E000
E000
7080
7FC0
3FC0
1F00
0400
0E00
0600
1E00
ENDCHAR
STARTCHAR egrave
ENCODING 232
SWIDTH 524 0
DWIDTH 11 0
BBX 10 16 0 0
BITMAP
1000
1800
1C00
0C00
0000
0F00
3F80
7FC0
7380
6700
E700
6E00
7C80
7BC0
3FC0
1F00
ENDCHAR
STARTCHAR eacute
ENCODING 233
SWIDTH 524 0
DWIDTH 11 0
BBX 10 16 0 0
BITMAP
0100
0380
0700
0600
0000
0F00
3F80
7FC0
7380
6700
E700
6E00
7C80
7BC0
3FC0
1F00
ENDCHAR
STARTCHAR ecircumflex
ENCODING 234
SWIDTH 524 0
DWIDTH 11 0
BBX 10 16 0 0
BITMAP
0400
0E00
1F00
1200
0000
0F00
3F80
7FC0
7380
6700
E700
6E00
7C80
7BC0
3FC0
1F00
ENDCHAR
STARTCHAR edieresis
ENCODING 235
SWIDTH 524 0
DWIDTH 11 0
BBX 10 14 0 0
BITMAP
1B00
3B00
0000
0F00
3F80
7FC0
7380
6700
E700
6E00
7C80
7BC0
3FC0
1F00
ENDCHAR
STARTCHAR igrave
ENCODING 236
SWIDTH 235 0
DWIDTH 5 0
BBX 5 15 -1 0
BITMAP
40
E0
70
30
00
38
38
38
38
38
38
38
38
38
38
ENDCHAR
STARTCHAR iacute
ENCODING 237
SWIDTH 235 0
DWIDTH 5 0
BBX 4 15 1 0
BITMAP
10
30
70
40
00
E0
E0
E0
E0
E0
E0
E0
E0
E0
E0
ENDCHAR
STARTCHAR icircumflex
ENCODING 238
SWIDTH 235 0
DWIDTH 5 0
BBX 5 15 0 0
BITMAP
20
70
F8
10
00
70
70
70
70
70
70
70
70
70
70
ENDCHAR
STARTCHAR idieresis
ENCODING 239
SWIDTH 235 0
DWIDTH 5 0
BBX 6 14 -1 0
BITMAP
6C
EC
00
00
38
38
38
38
38
38
38
38
38
38
ENDCHAR
STARTCHAR eth
ENCODING 240
SWIDTH 581 0
DWIDTH 12 0
BBX 11 15 0 0
BITMAP
0700
1FE0
1FE0
0380
0FC0
3FC0
7FE0
70E0
60E0
E0E0
E0E0
70E0
7FC0
3FC0
1F00
ENDCHAR
STARTCHAR ntilde
ENCODING 241
SWIDTH 562 0
DWIDTH 11 0
BBX 9 15 1 0
BITMAP
3300
3F00
6F00
3000
1C00
BF00
FF80
E380
E180
E180
E180
E180
E180
E180
E180
ENDCHAR
STARTCHAR ograve
ENCODING 242
SWIDTH 579 0
DWIDTH 12 0
BBX 11 15 0 0
BITMAP
1C00
1E00
0400
0000
0F00
3F80
7FC0
70E0
60E0
E0E0
E0E0
70E0
7FC0
3FC0
1F00
ENDCHAR
STARTCHAR oacute
ENCODING 243
SWIDTH 579 0
DWIDTH 12 0
BBX 11 16 0 0
BITMAP
0100
0380
0700
0600
0000
0F00
3F80
7FC0
70E0
60E0
E0E0
E0E0
70E0
7FC0
3FC0
1F00
ENDCHAR
STARTCHAR ocircumflex
ENCODING 244
SWIDTH 579 0
DWIDTH 12 0
BBX 11 15 0 0
BITMAP
0400
0E00
1F00
0900
0F00
3F80
7FC0
70E0
60E0
E0E0
E0E0
70E0
7FC0
3FC0
1F00
ENDCHAR
STARTCHAR otilde
ENCODING 245
SWIDTH 579 0
DWIDTH 12 0
BBX 11 15 0 0
BITMAP
1D80
1F80
1F80
1800
0F00
3F80
7FC0
70E0
60E0
E0E0
E0E0
70E0
7FC0
3FC0
1F00
ENDCHAR
STARTCHAR odieresis
ENCODING 246
SWIDTH 579 0
DWIDTH 12 0
BBX 11 14 0 0
BITMAP
1980
1B80
0000
0F00
3F80
7FC0
70E0
60E0
E0E0
E0E0
70E0
7FC0
3FC0
1F00
ENDCHAR
STARTCHAR divide
ENCODING 247
SWIDTH 494 0
DWIDTH 10 0
BBX 8 10 1 2
BITMAP
18
18
18
00
FF
FF
00
18
18
18
ENDCHAR
STARTCHAR oslash
ENCODING 248
SWIDTH 579 0
DWIDTH 12 0
BBX 11 11 0 0
BITMAP
0FE0
3FC0
7FC0
73E0
67E0
E6E0
EEE0
7CE0
7BC0
3FC0
7F00
ENDCHAR
STARTCHAR ugrave
ENCODING 249
SWIDTH 562 0
DWIDTH 11 0
BBX 9 15 1 0
BITMAP
2000
3000
3800
1800
0000
E180
E180
E180
E180
E180
E180
E380
F780
7F80
3E80
ENDCHAR
STARTCHAR uacute
ENCODING 250
SWIDTH 562 0
DWIDTH 11 0
BBX 9 15 1 0
BITMAP
0200
0700
0E00
0C00
0000
E180
E180
E180
E180
E180
E180
E380
F780
7F80
3E80
ENDCHAR
STARTCHAR ucircumflex
ENCODING 251
SWIDTH 562 0
DWIDTH 11 0
BBX 9 15 1 0
BITMAP
0800
1C00
3E00
1000
0000
E180
E180
E180
E180
E180
E180
E380
F780
7F80
3E80
ENDCHAR
STARTCHAR udieresis
ENCODING 252
SWIDTH 562 0
DWIDTH 11 0
BBX 9 14 1 0
BITMAP
3600
3700
0000
0000
E180
E180
E180
E180
E180
E180
E380
F780
7F80
3E80
ENDCHAR
STARTCHAR yacute
ENCODING 253
SWIDTH 562 0
DWIDTH 11 0
BBX 9 19 1 -4
BITMAP
0200
0700
0E00
0C00
0000
E180
E180
E180
E180
E180
E180
E380
F780
7F80
3F80
0380
1F00
1F00
1C00
ENDCHAR
STARTCHAR thorn
ENCODING 254
SWIDTH 608 0
DWIDTH 12 0
BBX 11 19 1 -4
BITMAP
E000
E000
E000
E000
EE00
FF80
FFC0
F1C0
E0E0
E0E0
E0E0
E1C0
FBC0
FF80
FF00
E000
E000
E000
E000
ENDCHAR
STARTCHAR ydieresis
ENCODING 255
SWIDTH 562 0
DWIDTH 11 0
BBX 9 18 1 -4
BITMAP
3600
3700
0000
0000
E180
E180
E180
E180
E180
E180
E380
F780
7F80
3F80
0380
1F00
1F00
1C00
ENDCHAR
STARTCHAR Amacron
ENCODING 256
SWIDTH 673 0
DWIDTH 13 0
BBX 11 17 1 0
BITMAP
1F00
1F00
0000
1F00
3FC0
7FC0
70E0
E0E0
E060
E060
E060
FFE0
FFE0
FFE0
E060
E060
E060
ENDCHAR
STARTCHAR amacron
ENCODING 257
SWIDTH 607 0
DWIDTH 12 0
BBX 11 14 0 0
BITMAP
1F00
1F00
0000
0F00
3FA0
7FE0
71E0
60E0
E0E0
E0E0
70E0
7FE0
3FE0
1F20
ENDCHAR
STARTCHAR Abreve
ENCODING 258
SWIDTH 673 0
DWIDTH 13 0
BBX 11 18 1 0
BITMAP
0B00
1B00
0E00
0000
1F00
3FC0
7FC0
70E0
E0E0
E060
E060
E060
FFE0
FFE0
FFE0
E060
E060
E060
ENDCHAR
STARTCHAR abreve
ENCODING 259
SWIDTH 607 0
DWIDTH 12 0
BBX 11 15 0 0
BITMAP
1B00
1B00
0E00
0000
0F00
3FA0
7FE0
71E0
60E0
E0E0
E0E0
70E0
7FE0
3FE0
1F20
ENDCHAR
STARTCHAR Aogonek
ENCODING 260
SWIDTH 673 0
DWIDTH 13 0
BBX 12 18 1 -4
BITMAP
1F00
3FC0
7FC0
70E0
E0E0
E060
E060
E060
FFE0
FFE0
FFE0
E060
E060
E060
00C0
00C0
00F0
0040
ENDCHAR
STARTCHAR aogonek
ENCODING 261
SWIDTH 607 0
DWIDTH 12 0
BBX 13 15 0 -4
BITMAP
0F00
3FA0
7FE0
71E0
60E0
E0E0
E0E0
70E0
7FE0
3FE0
1F20
0060
0050
0078
0020
ENDCHAR
STARTCHAR Cacute
ENCODING 262
SWIDTH 640 0
DWIDTH 13 0
BBX 11 19 1 0
BITMAP
0080
0180
0380
0200
0000
0FC0
3FE0
7FE0
F040
E000
E000
C000
C000
E000
E000
F000
7FE0
3FE0
1FC0
ENDCHAR
STARTCHAR cacute
ENCODING 263
SWIDTH 521 0
DWIDTH 10 0
BBX 10 16 0 0
BITMAP
0100
0300
0700
0600
0000
0F00
3F80
7FC0
7180
6000
E000
E000
7080
7FC0
3FC0
1F00
ENDCHAR
STARTCHAR Ccircumflex
ENCODING 264
SWIDTH 640 0
DWIDTH 13 0
BBX 11 19 1 0
BITMAP
0200
0700
0F80
0100
0000
0FC0
3FE0
7FE0
F040
E000
E000
C000
C000
E000
E000
F000
7FE0
3FE0
1FC0
ENDCHAR
STARTCHAR ccircumflex
ENCODING 265
SWIDTH 521 0
DWIDTH 10 0
BBX 10 15 0 0
BITMAP
0400
0E00
1F00
0900
0F00
3F80
7FC0
7180
6000
E000
E000
7080
7FC0
3FC0
1F00
ENDCHAR
STARTCHAR Cdotaccent
ENCODING 266
SWIDTH 640 0
DWIDTH 13 0
BBX 11 17 1 0
BITMAP
0300
0700
0000
0FC0
3FE0
7FE0
F040
E000
E000
C000
C000
E000
E000
F000
7FE0
3FE0
1FC0
ENDCHAR
STARTCHAR cdotaccent
ENCODING 267
SWIDTH 521 0
DWIDTH 10 0
BBX 10 14 0 0
BITMAP
0600
0600
0000
0F00
3F80
7FC0
7180
6000
E000
E000
7080
7FC0
3FC0
1F00
ENDCHAR
STARTCHAR Ccaron
ENCODING 268
SWIDTH 640 0
DWIDTH 13 0
BBX 11 19 1 0
BITMAP
0480
0F80
0700
0200
0000
0FC0
3FE0
7FE0
F040
E000
E000
C000
C000
E000
E000
F000
7FE0
3FE0
1FC0
ENDCHAR
STARTCHAR ccaron
ENCODING 269
SWIDTH 521 0
DWIDTH 10 0
BBX 10 15 0 0
BITMAP
0900
1F00
0E00
0000
0F00
3F80
7FC0
7180
6000
E000
E000
7080
7FC0
3FC0
1F00
ENDCHAR
STARTCHAR Dcaron
ENCODING 270
SWIDTH 653 0
DWIDTH 13 0
BBX 11 18 1 0
BITMAP
1B00
1F00
0E00
0400
FE00
FF80
FFC0
E1E0
E0E0
E0E0
E060
E060
E0E0
E0E0
E1E0
FFC0
FF80
FE00
ENDCHAR
STARTCHAR dcaron
ENCODING 271
SWIDTH 740 0
DWIDTH 15 0
BBX 15 15 0 0
BITMAP
00E0
00EE
00EE
00E6
0FE4
3FE0
7FE0
71E0
60E0
E0E0
E0E0
70E0
7FE0
3FE0
1F20
ENDCHAR
STARTCHAR Dcroat
ENCODING 272
SWIDTH 672 0
DWIDTH 13 0
BBX 13 14 0 0
BITMAP
3F80
3FC0
3FE0
38F0
3870
3838
FC38
FC38
3838
3870
38F0
3FE0
3FC0
3F00
ENDCHAR
STARTCHAR dcroat
ENCODING 273
SWIDTH 606 0
DWIDTH 12 0
BBX 12 15 0 0
BITMAP
00E0
01F0
01F0
01F0
0FE0
3FE0
7FE0
71E0
60E0
E0E0
E0E0
70E0
7FE0
3FE0
1F20
ENDCHAR
STARTCHAR Emacron
ENCODING 274
SWIDTH 578 0
DWIDTH 12 0
BBX 10 17 1 0
BITMAP
1F00
1F00
0000
FFC0
FFC0
FFC0
E000
E000
E000
FF00
FF00
E000
E000
E000
FFC0
FFC0
FFC0
ENDCHAR
STARTCHAR emacron
ENCODING 275
SWIDTH 524 0
DWIDTH 11 0
BBX 10 14 0 0
BITMAP
1F00
1F00
0000
0F00
3F80
7FC0
7380
6700
E700
6E00
7C80
7BC0
3FC0
1F00
ENDCHAR
STARTCHAR Ebreve
ENCODING 276
SWIDTH 578 0
DWIDTH 12 0
BBX 10 18 1 0
BITMAP
1E00
1E00
1E00
0000
FFC0
FFC0
FFC0
E000
E000
E000
FF00
FF00
E000
E000
E000
FFC0
FFC0
FFC0
ENDCHAR
STARTCHAR ebreve
ENCODING 277
SWIDTH 524 0
DWIDTH 11 0
BBX 10 15 0 0
BITMAP
1B00
1B00
0E00
0000
0F00
3F80
7FC0
7380
6700
E700
6E00
7C80
7BC0
3FC0
1F00
ENDCHAR
STARTCHAR Edotaccent
ENCODING 278
SWIDTH 578 0
DWIDTH 12 0
BBX 10 17 1 0
BITMAP
0C00
0C00
0000
FFC0
FFC0
FFC0
E000
E000
E000
FF00
FF00
E000
E000
E000
FFC0
FFC0
FFC0
ENDCHAR
STARTCHAR edotaccent
ENCODING 279
SWIDTH 524 0
DWIDTH 11 0
BBX 10 14 0 0
BITMAP
0600
0600
0000
0F00
3F80
7FC0
7380
6700
E700
6E00
7C80
7BC0
3FC0
1F00
ENDCHAR
STARTCHAR Eogonek
ENCODING 280
SWIDTH 578 0
DWIDTH 12 0
BBX 10 18 1 -4
BITMAP
FFC0
FFC0
FFC0
E000
E000
E000
FF00
FF00
E000
E000
E000
FFC0
FFC0
FFC0
0300
0380
03C0
0100
ENDCHAR
STARTCHAR eogonek
ENCODING 281
SWIDTH 524 0
DWIDTH 11 0
BBX 10 15 0 -4
BITMAP
0F00
3F80
7FC0
7380
6700
E700
6E00
7C80
7BC0
3FC0
1F00
0300
0600
03C0
0100
ENDCHAR
STARTCHAR Ecaron
ENCODING 282
SWIDTH 578 0
DWIDTH 12 0
BBX 10 18 1 0
BITMAP
1200
1F00
0E00
0400
FFC0
FFC0
FFC0
E000
E000
E000
FF00
FF00
E000
E000
E000
FFC0
FFC0
FFC0
ENDCHAR
STARTCHAR ecaron
ENCODING 283
SWIDTH 524 0
DWIDTH 11 0
BBX 10 15 0 0
BITMAP
0900
1F00
0E00
0400
0F00
3F80
7FC0
7380
6700
E700
6E00
7C80
7BC0
3FC0
1F00
ENDCHAR
STARTCHAR Gcircumflex
ENCODING 284
SWIDTH 665 0
DWIDTH 13 0
BBX 11 19 1 0
BITMAP
0200
0700
0F80
0000
0000
0FC0
3FE0
7FE0
F040
E000
E000
C000
C060
E060
E060
F060
7DE0
3FE0
1FC0
ENDCHAR
STARTCHAR gcircumflex
ENCODING 285
SWIDTH 607 0
DWIDTH 12 0
BBX 11 19 0 -4
BITMAP
0400
0E00
1F00
0900
0F00
3FA0
7FE0
71E0
60E0
E0E0
E0E0
70E0
7FE0
3FE0
1FE0
00E0
0FC0
0FC0
0F00
ENDCHAR
STARTCHAR Gbreve
ENCODING 286
SWIDTH 665 0
DWIDTH 13 0
BBX 11 18 1 0
BITMAP
0D80
0D80
0700
0000
0FC0
3FE0
7FE0
F040
E000
E000
C000
C060
E060
E060
F060
7DE0
3FE0
1FC0
ENDCHAR
STARTCHAR gbreve
ENCODING 287
SWIDTH 607 0
DWIDTH 12 0
BBX 11 19 0 -4
BITMAP
0B00
0F00
0F00
0000
0F00
3FA0
7FE0
71E0
60E0
E0E0
E0E0
70E0
7FE0
3FE0
1FE0
00E0
0FC0
0FC0
0F00
ENDCHAR
STARTCHAR Gdotaccent
ENCODING 288
SWIDTH 665 0
DWIDTH 13 0
BBX 11 17 1 0
BITMAP
0700
0700
0000
0FC0
3FE0
7FE0
F040
E000
E000
C000
C060
E060
E060
F060
7DE0
3FE0
1FC0
ENDCHAR
STARTCHAR gdotaccent
ENCODING 289
SWIDTH 607 0
DWIDTH 12 0
BBX 11 18 0 -4
BITMAP
0600
0600
0000
0F00
3FA0
7FE0
71E0
60E0
E0E0
E0E0
70E0
7FE0
3FE0
1FE0
00E0
0FC0
0FC0
0F00
ENDCHAR
STARTCHAR Gcommaaccent
ENCODING 290
SWIDTH 665 0
DWIDTH 13 0
BBX 11 19 1 -5
BITMAP
0FC0
3FE0
7FE0
F040
E000
E000
C000
C060
E060
E060
F060
7DE0
3FE0
1FC0
0000
0700
0700
0300
0200
ENDCHAR
STARTCHAR gcommaaccent
ENCODING 291
SWIDTH 607 0
DWIDTH 12 0
BBX 11 20 0 -4
BITMAP
0400
0400
0E00
0E00
0000
0F00
3FA0
7FE0
71E0
60E0
E0E0
E0E0
70E0
7FE0
3FE0
1FE0
00E0
0FC0
0FC0
0F00
ENDCHAR
STARTCHAR Hcircumflex
ENCODING 292
SWIDTH 689 0
DWIDTH 14 0
BBX 12 18 1 0
BITMAP
0400
0E00
1F00
0900
E070
E070
E070
E070
E070
E070
FFF0
FFF0
E070
E070
E070
E070
E070
E070
ENDCHAR
STARTCHAR hcircumflex
ENCODING 293
SWIDTH 562 0
DWIDTH 11 0
BBX 9 15 1 0
BITMAP
E400
EE00
FF00
E900
EC00
FF00
FF80
E380
E180
E180
E180
E180
E180
E180
E180
ENDCHAR
STARTCHAR Hbar
ENCODING 294
SWIDTH 689 0
DWIDTH 14 0
BBX 14 14 0 0
BITMAP
7038
7038
FFFC
FFFC
7038
7038
7FF8
7FF8
7038
7038
7038
7038
7038
7038
ENDCHAR
STARTCHAR hbar
ENCODING 295
SWIDTH 562 0
DWIDTH 11 0
BBX 10 15 0 0
BITMAP
7000
F800
F800
7000
7600
7F80
7FC0
71C0
70C0
70C0
70C0
70C0
70C0
70C0
70C0
ENDCHAR
STARTCHAR Itilde
ENCODING 296
SWIDTH 270 0
DWIDTH 5 0
BBX 6 18 0 0
BITMAP
CC
FC
FC
C0
70
70
70
70
70
70
70
70
70
70
70
70
70
70
ENDCHAR
STARTCHAR itilde
ENCODING 297
SWIDTH 235 0
DWIDTH 5 0
BBX 7 15 -1 0
BITMAP
64
FE
DC
C0
00
38
38
38
38
38
38
38
38
38
38
ENDCHAR
STARTCHAR Imacron
ENCODING 298
SWIDTH 270 0
DWIDTH 5 0
BBX 5 17 0 0
BITMAP
F8
F8
00
70
70
70
70
70
70
70
70
70
70
70
70
70
70
ENDCHAR
STARTCHAR imacron
ENCODING 299
SWIDTH 235 0
DWIDTH 5 0
BBX 5 14 0 0
BITMAP
F8
F8
00
00
70
70
70
70
70
70
70
70
70
70
ENDCHAR
STARTCHAR Ibreve
ENCODING 300
SWIDTH 270 0
DWIDTH 5 0
BBX 4 18 1 0
BITMAP
B0
F0
F0
00
E0
E0
E0
E0
E0
E0
E0
E0
E0
E0
E0
E0
E0
E0
ENDCHAR
STARTCHAR ibreve
ENCODING 301
SWIDTH 235 0
DWIDTH 5 0
BBX 5 14 0 0
BITMAP
D0
D8
70
00
70
70
70
70
70
70
70
70
70
70
ENDCHAR
STARTCHAR Iogonek
ENCODING 302
SWIDTH 270 0
DWIDTH 5 0
BBX 4 18 1 -4
BITMAP
E0
E0
E0
E0
E0
E0
E0
E0
E0
E0
E0
E0
E0
E0
C0
E0
F0
40
ENDCHAR
STARTCHAR iogonek
ENCODING 303
SWIDTH 235 0
DWIDTH 5 0
BBX 5 19 0 -4
BITMAP
70
70
70
00
00
70
70
70
70
70
70
70
70
70
70
60
D0
78
20
ENDCHAR
STARTCHAR Idotaccent
ENCODING 304
SWIDTH 270 0
DWIDTH 5 0
BBX 3 17 1 0
BITMAP
60
60
00
E0
E0
E0
E0
E0
E0
E0
E0
E0
E0
E0
E0
E0
E0
ENDCHAR
STARTCHAR dotlessi
ENCODING 305
SWIDTH 235 0
DWIDTH 5 0
BBX 3 10 1 0
BITMAP
E0
E0
E0
E0
E0
E0
E0
E0
E0
E0
ENDCHAR
STARTCHAR IJ
ENCODING 306
SWIDTH 687 0
DWIDTH 14 0
BBX 12 14 1 0
BITMAP
E070
E070
E070
E070
E070
E070
E070
E070
E070
E070
E0E0
E7E0
E7C0
E700
ENDCHAR
STARTCHAR ij
ENCODING 307
SWIDTH 474 0
DWIDTH 9 0
BBX 8 19 1 -4
BITMAP
E6
EF
E7
00
00
E6
E6
E6
E6
E6
E6
E6
E6
E6
E6
0E
7E
7C
70
ENDCHAR
STARTCHAR Jcircumflex
ENCODING 308
SWIDTH 416 0
DWIDTH 8 0
BBX 8 19 0 0
BITMAP
04
0E
1F
09
00
0E
0E
0E
0E
0E
0E
0E
0E
0E
0E
1E
FC
F8
F0
ENDCHAR
STARTCHAR jcircumflex
ENCODING 309
SWIDTH 237 0
DWIDTH 5 0
BBX 8 19 -3 -4
BITMAP
04
0E
1F
02
00
0E
0E
0E
0E
0E
0E
0E
0E
0E
0E
1C
FC
F8
F0
ENDCHAR
STARTCHAR Kcommaaccent
ENCODING 310
SWIDTH 625 0
DWIDTH 13 0
BBX 11 19 1 -5
BITMAP
E0E0
E1C0
E3C0
E380
E700
EE00
FE00
FF00
FF00
F380
F3C0
E1C0
E1E0
E0E0
0000
0C00
0E00
0400
0400
ENDCHAR
STARTCHAR kcommaaccent
ENCODING 311
SWIDTH 539 0
DWIDTH 11 0
BBX 9 20 1 -5
BITMAP
E000
E000
E000
E000
E000
E380
E700
EE00
EE00
FE00
FE00
F700
F700
E380
E380
0000
1800
1C00
0C00
0800
ENDCHAR
STARTCHAR kgreenlandic
ENCODING 312
SWIDTH 539 0
DWIDTH 11 0
BBX 9 11 1 0
BITMAP
E000
E380
E700
EE00
EE00
FE00
FE00
F700
F700
E380
E380
ENDCHAR
STARTCHAR Lacute
ENCODING 313
SWIDTH 562 0
DWIDTH 11 0
BBX 10 17 1 0
BITMAP
0E00
1E00
0800
E000
E000
E000
E000
E000
E000
E000
E000
E000
E000
E000
FFC0
FFC0
FFC0
ENDCHAR
STARTCHAR lacute
ENCODING 314
SWIDTH 235 0
DWIDTH 5 0
BBX 5 20 1 0
BITMAP
10
38
78
20
00
E0
E0
E0
E0
E0
E0
E0
E0
E0
E0
E0
E0
E0
E0
E0
ENDCHAR
STARTCHAR Lcommaaccent
ENCODING 315
SWIDTH 562 0
DWIDTH 11 0
BBX 10 19 1 -5
BITMAP
E000
E000
E000
E000
E000
E000
E000
E000
E000
E000
E000
FFC0
FFC0
FFC0
0000
0C00
1C00
0C00
0800
ENDCHAR
STARTCHAR lcommaaccent
ENCODING 316
SWIDTH 235 0
DWIDTH 5 0
BBX 3 20 1 -5
BITMAP
E0
E0
E0
E0
E0
E0
E0
E0
E0
E0
E0
E0
E0
E0
E0
00
C0
E0
60
40
ENDCHAR
STARTCHAR Lcaron
ENCODING 317
SWIDTH 562 0
DWIDTH 11 0
BBX 10 14 1 0
BITMAP
E600
EE00
E600
E400
E000
E000
E000
E000
E000
E000
E000
FFC0
FFC0
FFC0
ENDCHAR
STARTCHAR lcaron
ENCODING 318
SWIDTH 369 0
DWIDTH 7 0
BBX 6 15 1 0
BITMAP
E0
EC
EC
EC
EC
E0
E0
E0
E0
E0
E0
E0
E0
E0
E0
ENDCHAR
STARTCHAR Ldot
ENCODING 319
SWIDTH 745 0
DWIDTH 15 0
BBX 13 14 1 0
BITMAP
E000
E000
E000
E000
E000
E010
E038
E038
E010
E000
E000
FFC0
FFC0
FFC0
ENDCHAR
STARTCHAR ldotaccent
ENCODING 320
SWIDTH 463 0
DWIDTH 9 0
BBX 7 15 1 0
BITMAP
E0
E0
E0
E0
E0
E0
E4
EE
EE
E4
E0
E0
E0
E0
E0
ENDCHAR
STARTCHAR Lslash
ENCODING 321
SWIDTH 585 0
DWIDTH 12 0
BBX 12 14 0 0
BITMAP
3800
3800
3800
3800
3C00
3C00
7C00
F800
F800
B800
3800
3FF0
3FF0
3FF0
ENDCHAR
STARTCHAR lslash
ENCODING 322
SWIDTH 319 0
DWIDTH 6 0
BBX 6 15 0 0
BITMAP
30
30
30
30
30
34
3C
3C
F8
F0
B0
30
30
30
30
ENDCHAR
STARTCHAR Nacute
ENCODING 323
SWIDTH 689 0
DWIDTH 14 0
BBX 12 18 1 0
BITMAP
0100
0380
0780
0600
F070
F070
F870
F870
FC70
EE70
EE70
E770
E770
E3F0
E3F0
E1F0
E0F0
E0F0
ENDCHAR
STARTCHAR nacute
ENCODING 324
SWIDTH 562 0
DWIDTH 11 0
BBX 9 16 1 0
BITMAP
0200
0700
0F00
0400
0000
1C00
BF00
FF80
E380
E180
E180
E180
E180
E180
E180
E180
ENDCHAR
STARTCHAR Ncommaaccent
ENCODING 325
SWIDTH 689 0
DWIDTH 14 0
BBX 12 19 1 -5
BITMAP
F070
F070
F870
F870
FC70
EE70
EE70
E770
E770
E3F0
E3F0
E1F0
E0F0
E0F0
0000
0600
0600
0600
0600
ENDCHAR
STARTCHAR ncommaaccent
ENCODING 326
SWIDTH 562 0
DWIDTH 11 0
BBX 9 16 1 -5
BITMAP
1C00
BF00
FF80
E380
E180
E180
E180
E180
E180
E180
E180
0000
0C00
1C00
0C00
0800
ENDCHAR
STARTCHAR Ncaron
ENCODING 327
SWIDTH 689 0
DWIDTH 14 0
BBX 12 18 1 0
BITMAP
0900
1F00
0600
0000
F070
F070
F870
F870
FC70
EE70
EE70
E770
E770
E3F0
E3F0
E1F0
E0F0
E0F0
ENDCHAR
STARTCHAR ncaron
ENCODING 328
SWIDTH 562 0
DWIDTH 11 0
BBX 9 15 1 0
BITMAP
1600
3E00
1C00
0800
1C00
BF00
FF80
E380
E180
E180
E180
E180
E180
E180
E180
ENDCHAR
STARTCHAR napostrophe
ENCODING 329
SWIDTH 694 0
DWIDTH 14 0
BBX 13 14 0 0
BITMAP
C000
E000
4000
41C0
0FE0
0FF0
0E38
0C38
0C38
0C38
0C38
0C38
0C38
0C38
ENDCHAR
STARTCHAR Eng
ENCODING 330
SWIDTH 689 0
DWIDTH 14 0
BBX 12 18 1 -4
BITMAP
F070
F070
F870
F870
FC70
EE70
EE70
E770
E770
E3F0
E3F0
E1F0
E0E0
E0E0
00E0
0FE0
0FC0
0F00
ENDCHAR
STARTCHAR eng
ENCODING 331
SWIDTH 562 0
DWIDTH 11 0
BBX 9 15 1 -4
BITMAP
1C00
BF00
FF80
E380
E180
E180
E180
E180
E180
E180
E180
0380
1F80
1F00
1C00
ENDCHAR
STARTCHAR Omacron
ENCODING 332
SWIDTH 777 0
DWIDTH 16 0
BBX 14 17 1 0
BITMAP
0F80
0F80
0000
0FC0
3FE0
7FF0
F078
E03C
E01C
C01C
C01C
E01C
E03C
F038
7FF0
3FF0
1FC0
ENDCHAR
STARTCHAR omacron
ENCODING 333
SWIDTH 579 0
DWIDTH 12 0
BBX 11 14 0 0
BITMAP
1F00
1F00
0000
0F00
3F80
7FC0
70E0
60E0
E0E0
E0E0
70E0
7FC0
3FC0
1F00
ENDCHAR
STARTCHAR Obreve
ENCODING 334
SWIDTH 777 0
DWIDTH 16 0
BBX 14 18 1 0
BITMAP
0580
0780
0780
0000
0FC0
3FE0
7FF0
F078
E03C
E01C
C01C
C01C
E01C
E03C
F038
7FF0
3FF0
1FC0
ENDCHAR
STARTCHAR obreve
ENCODING 335
SWIDTH 579 0
DWIDTH 12 0
BBX 11 15 0 0
BITMAP
0B00
0F00
0F00
0000
0F00
3F80
7FC0
70E0
60E0
E0E0
E0E0
70E0
7FC0
3FC0
1F00
ENDCHAR
STARTCHAR Ohungarumlaut
ENCODING 336
SWIDTH 777 0
DWIDTH 16 0
BBX 14 20 1 0
BITMAP
0200
0760
0EE0
0DC0
0080
0000
0FC0
3FE0
7FF0
F078
E03C
E01C
C01C
C01C
E01C
E03C
F038
7FF0
3FF0
1FC0
ENDCHAR
STARTCHAR ohungarumlaut
ENCODING 337
SWIDTH 579 0
DWIDTH 12 0
BBX 11 16 0 0
BITMAP
0400
0EC0
1DC0
1B80
0100
0F00
3F80
7FC0
70E0
60E0
E0E0
E0E0
70E0
7FC0
3FC0
1F00
ENDCHAR
STARTCHAR OE
ENCODING 338
SWIDTH 1125 0
DWIDTH 23 0
BBX 21 14 1 0
BITMAP
0FDFF8
3FFFF8
7FFFF8
F07C00
E03C00
E01C00
C01FE0
C01FE0
E01C00
E03C00
F03C00
7FFFF8
3FFFF8
1FDFF8
ENDCHAR
STARTCHAR oe
ENCODING 339
SWIDTH 924 0
DWIDTH 19 0
BBX 18 11 0 0
BITMAP
0F0F00
3FBF80
7FFFC0
70F380
60E700
E0E700
E0EE00
70FC80
7FFBC0
3FFFC0
1F1F00
ENDCHAR
STARTCHAR Racute
ENCODING 340
SWIDTH 651 0
DWIDTH 13 0
BBX 11 19 1 0
BITMAP
0100
0300
0700
0400
0000
FF00
FFC0
FFE0
E0E0
E0E0
E060
E060
E0E0
FFE0
FFC0
FF80
E380
E1C0
E1C0
ENDCHAR
STARTCHAR racute
ENCODING 341
SWIDTH 414 0
DWIDTH 8 0
BBX 7 15 1 0
BITMAP
04
0C
1C
10
00
BE
FE
F0
E0
E0
E0
E0
E0
E0
E0
ENDCHAR
STARTCHAR Rcommaaccent
ENCODING 342
SWIDTH 651 0
DWIDTH 13 0
BBX 11 19 1 -5
BITMAP
FF00
FFC0
FFE0
E0E0
E0E0
E060
E060
E0E0
FFE0
FFC0
FF80
E380
E1C0
E1C0
0000
0E00
0E00
0600
0400
ENDCHAR
STARTCHAR rcommaaccent
ENCODING 343
SWIDTH 414 0
DWIDTH 8 0
BBX 7 15 1 -5
BITMAP
BE
FE
F0
E0
E0
E0
E0
E0
E0
E0
00
C0
E0
40
40
ENDCHAR
STARTCHAR Rcaron
ENCODING 344
SWIDTH 651 0
DWIDTH 13 0
BBX 11 18 1 0
BITMAP
1B00
1F00
0E00
0400
FF00
FFC0
FFE0
E0E0
E0E0
E060
E060
E0E0
FFE0
FFC0
FF80
E380
E1C0
E1C0
ENDCHAR
STARTCHAR rcaron
ENCODING 345
SWIDTH 414 0
DWIDTH 8 0
BBX 7 15 1 0
BITMAP
48
7C
38
00
00
BE
FE
F0
E0
E0
E0
E0
E0
E0
E0
ENDCHAR
STARTCHAR Sacute
ENCODING 346
SWIDTH 610 0
DWIDTH 12 0
BBX 12 19 0 0
BITMAP
0080
0180
0380
0200
0000
1FE0
7FE0
7FE0
6000
E000
7000
7FC0
3FE0
00E0
0070
0070
7FE0
7FE0
7F80
ENDCHAR
STARTCHAR sacute
ENCODING 347
SWIDTH 523 0
DWIDTH 10 0
BBX 9 15 1 0
BITMAP
0200
0700
0E00
0C00
0000
7F00
FF00
C000
E000
FF00
7F80
0380
FF80
FF80
FF00
ENDCHAR
STARTCHAR Scircumflex
ENCODING 348
SWIDTH 610 0
DWIDTH 12 0
BBX 12 19 0 0
BITMAP
0200
0700
0F80
0900
0000
1FE0
7FE0
7FE0
6000
E000
7000
7FC0
3FE0
00E0
0070
0070
7FE0
7FE0
7F80
ENDCHAR
STARTCHAR scircumflex
ENCODING 349
SWIDTH 523 0
DWIDTH 10 0
BBX 9 15 1 0
BITMAP
0800
1C00
3E00
2400
0000
7F00
FF00
C000
E000
FF00
7F80
0380
FF80
FF80
FF00
ENDCHAR
STARTCHAR Scedilla
ENCODING 350
SWIDTH 610 0
DWIDTH 12 0
BBX 12 18 0 -4
BITMAP
1FE0
7FE0
7FE0
6000
E000
7000
7FC0
3FE0
00E0
0070
0070
7FE0
7FE0
7F80
0200
0700
0B00
0F00
ENDCHAR
STARTCHAR scedilla
ENCODING 351
SWIDTH 523 0
DWIDTH 10 0
BBX 9 14 1 -4
BITMAP
7F00
FF00
C000
E000
FF00
7F80
0380
FF80
FF80
FF00
0800
1C00
0C00
3C00
ENDCHAR
STARTCHAR Scaron
ENCODING 352
SWIDTH 610 0
DWIDTH 12 0
BBX 12 19 0 0
BITMAP
0900
0F00
0600
0000
0000
1FE0
7FE0
7FE0
6000
E000
7000
7FC0
3FE0
00E0
0070
0070
7FE0
7FE0
7F80
ENDCHAR
STARTCHAR scaron
ENCODING 353
SWIDTH 523 0
DWIDTH 10 0
BBX 9 15 1 0
BITMAP
3400
3E00
1C00
0800
0000
7F00
FF00
C000
E000
FF00
7F80
0380
FF80
FF80
FF00
ENDCHAR
STARTCHAR Tcommaaccent
ENCODING 354
SWIDTH 578 0
DWIDTH 12 0
BBX 11 19 0 -5
BITMAP
FFE0
FFE0
FFE0
0E00
0E00
0E00
0E00
0E00
0E00
0E00
0E00
0E00
0E00
0E00
0000
0600
0E00
0600
0600
ENDCHAR
STARTCHAR tcommaaccent
ENCODING 355
SWIDTH 437 0
DWIDTH 9 0
BBX 8 20 0 -5
BITMAP
30
30
30
30
30
FF
FF
30
30
30
30
38
3F
1F
0F
00
18
1C
0C
08
ENDCHAR
STARTCHAR Tcaron
ENCODING 356
SWIDTH 578 0
DWIDTH 12 0
BBX 11 18 0 0
BITMAP
0900
1F00
0E00
0000
FFE0
FFE0
FFE0
0E00
0E00
0E00
0E00
0E00
0E00
0E00
0E00
0E00
0E00
0E00
ENDCHAR
STARTCHAR tcaron
ENCODING 357
SWIDTH 570 0
DWIDTH 11 0
BBX 11 15 0 0
BITMAP
3000
3060
3060
3060
3060
FF00
FF00
3000
3000
3000
3000
3800
3F00
1F00
0F00
ENDCHAR
STARTCHAR Tbar
ENCODING 358
SWIDTH 578 0
DWIDTH 12 0
BBX 11 14 0 0
BITMAP
FFE0
FFE0
FFE0
0E00
0E00
0E00
0E00
1F80
1F80
0E00
0E00
0E00
0E00
0E00
ENDCHAR
STARTCHAR tbar
ENCODING 359
SWIDTH 437 0
DWIDTH 9 0
BBX 8 15 0 0
BITMAP
30
30
30
30
30
FF
FF
30
FC
FC
FC
38
3F
1F
0F
ENDCHAR
STARTCHAR Utilde
ENCODING 360
SWIDTH 673 0
DWIDTH 13 0
BBX 11 18 1 0
BITMAP
1D80
1F80
1F80
1800
E060
E060
E060
E060
E060
E060
E060
E060
E060
E0E0
70E0
7FC0
3FC0
1F00
ENDCHAR
STARTCHAR utilde
ENCODING 361
SWIDTH 562 0
DWIDTH 11 0
BBX 9 15 1 0
BITMAP
3300
7F00
6F00
3000
0000
E180
E180
E180
E180
E180
E180
E380
F780
7F80
3E80
ENDCHAR
STARTCHAR Umacron
ENCODING 362
SWIDTH 673 0
DWIDTH 13 0
BBX 11 17 1 0
BITMAP
1F00
1F00
0000
E060
E060
E060
E060
E060
E060
E060
E060
E060
E0E0
70E0
7FC0
3FC0
1F00
ENDCHAR
STARTCHAR umacron
ENCODING 363
SWIDTH 562 0
DWIDTH 11 0
BBX 9 14 1 0
BITMAP
3E00
3E00
0000
0000
E180
E180
E180
E180
E180
E180
E380
F780
7F80
3E80
ENDCHAR
STARTCHAR Ubreve
ENCODING 364
SWIDTH 673 0
DWIDTH 13 0
BBX 11 18 1 0
BITMAP
0B00
0F00
0F00
0000
E060
E060
E060
E060
E060
E060
E060
E060
E060
E0E0
70E0
7FC0
3FC0
1F00
ENDCHAR
STARTCHAR ubreve
ENCODING 365
SWIDTH 562 0
DWIDTH 11 0
BBX 9 14 1 0
BITMAP
3600
3600
1C00
0000
E180
E180
E180
E180
E180
E180
E380
F780
7F80
3E80
ENDCHAR
STARTCHAR Uring
ENCODING 366
SWIDTH 673 0
DWIDTH 13 0
BBX 11 18 1 0
BITMAP
0E00
0B00
0F00
0600
E060
E060
E060
E060
E060
E060
E060
E060
E060
E0E0
70E0
7FC0
3FC0
1F00
ENDCHAR
STARTCHAR uring
ENCODING 367
SWIDTH 562 0
DWIDTH 11 0
BBX 9 15 1 0
BITMAP
1C00
1600
1C00
0800
0000
E180
E180
E180
E180
E180
E180
E380
F780
7F80
3E80
ENDCHAR
STARTCHAR Uhungarumlaut
ENCODING 368
SWIDTH 673 0
DWIDTH 13 0
BBX 11 19 1 0
BITMAP
0400
0EC0
1DC0
1B80
0100
E060
E060
E060
E060
E060
E060
E060
E060
E060
E0E0
70E0
7FC0
3FC0
1F00
ENDCHAR
STARTCHAR uhungarumlaut
ENCODING 369
SWIDTH 562 0
DWIDTH 11 0
BBX 9 16 1 0
BITMAP
0800
1D80
3B80
3700
0200
0000
E180
E180
E180
E180
E180
E180
E380
F780
7F80
3E80
ENDCHAR
STARTCHAR Uogonek
ENCODING 370
SWIDTH 673 0
DWIDTH 13 0
BBX 11 18 1 -4
BITMAP
E060
E060
E060
E060
E060
E060
E060
E060
E060
E0E0
70E0
7FC0
3FC0
1F00
0C00
0A00
0F00
0400
ENDCHAR
STARTCHAR uogonek
ENCODING 371
SWIDTH 562 0
DWIDTH 11 0
BBX 11 14 1 -4
BITMAP
E180
E180
E180
E180
E180
E180
E380
F780
7F80
3E80
0180
01C0
01E0
0080
ENDCHAR
STARTCHAR Wcircumflex
ENCODING 372
SWIDTH 819 0
DWIDTH 16 0
BBX 14 19 1 0
BITMAP
0100
0380
07C0
0480
0000
E39C
E39C
E39C
E39C
E39C
E39C
E39C
E39C
E39C
E39C
E39C
FFFC
7FF8
3EF0
ENDCHAR
STARTCHAR wcircumflex
ENCODING 373
SWIDTH 756 0
DWIDTH 15 0
BBX 13 15 1 0
BITMAP
0200
0700
0F80
0480
0000
E718
E718
E718
E718
E718
E718
E718
FFB8
7FF8
3DE0
ENDCHAR
STARTCHAR Ycircumflex
ENCODING 374
SWIDTH 620 0
DWIDTH 12 0
BBX 11 18 1 0
BITMAP
0400
0E00
1F00
1200
C0E0
C0E0
C0E0
C0E0
C0E0
E0E0
F1C0
7FC0
3F80
1E00
0E00
0E00
0E00
0E00
ENDCHAR
STARTCHAR ycircumflex
ENCODING 375
SWIDTH 562 0
DWIDTH 11 0
BBX 9 19 1 -4
BITMAP
0800
1C00
3E00
1200
0000
E180
E180
E180
E180
E180
E180
E380
F780
7F80
3F80
0380
1F00
1F00
1C00
ENDCHAR
STARTCHAR Ydieresis
ENCODING 376
SWIDTH 620 0
DWIDTH 12 0
BBX 11 17 1 0
BITMAP
3B00
3B00
0000
C0E0
C0E0
C0E0
C0E0
C0E0
E0E0
F1C0
7FC0
3F80
1E00
0E00
0E00
0E00
0E00
ENDCHAR
STARTCHAR Zacute
ENCODING 377
SWIDTH 586 0
DWIDTH 12 0
BBX 11 19 0 0
BITMAP
0100
0380
0780
0200
0000
FFE0
FFE0
FFC0
0380
0380
0700
0F00
0E00
1E00
1C00
3C00
3FE0
7FE0
7FE0
ENDCHAR
STARTCHAR zacute
ENCODING 378
SWIDTH 481 0
DWIDTH 10 0
BBX 9 15 0 0
BITMAP
0200
0700
0F00
0400
0000
FF80
FF00
0700
0E00
0C00
1C00
3800
3F80
7F80
7F80
ENDCHAR
STARTCHAR Zdotaccent
ENCODING 379
SWIDTH 586 0
DWIDTH 12 0
BBX 11 17 0 0
BITMAP
0600
0600
0000
FFE0
FFE0
FFC0
0380
0380
0700
0F00
0E00
1E00
1C00
3C00
3FE0
7FE0
7FE0
ENDCHAR
STARTCHAR zdotaccent
ENCODING 380
SWIDTH 481 0
DWIDTH 10 0
BBX 9 14 0 0
BITMAP
0C00
0C00
0000
0000
FF80
FF00
0700
0E00
0C00
1C00
3800
3F80
7F80
7F80
ENDCHAR
STARTCHAR Zcaron
ENCODING 381
SWIDTH 586 0
DWIDTH 12 0
BBX 11 19 0 0
BITMAP
0900
1F00
0600
0000
0000
FFE0
FFE0
FFC0
0380
0380
0700
0F00
0E00
1E00
1C00
3C00
3FE0
7FE0
7FE0
ENDCHAR
STARTCHAR zcaron
ENCODING 382
SWIDTH 481 0
DWIDTH 10 0
BBX 9 15 0 0
BITMAP
1200
3E00
1C00
0000
0000
FF80
FF00
0700
0E00
0C00
1C00
3800
3F80
7F80
7F80
ENDCHAR
STARTCHAR AEacute
ENCODING 508
SWIDTH 988 0
DWIDTH 20 0
BBX 18 19 1 0
BITMAP
001000
003800
007800
006000
000000
1FFFC0
3FFFC0
7FFFC0
706000
E06000
E06000
E07F00
E07F00
FFE000
FFE000
FFE000
E07FC0
E07FC0
E07FC0
ENDCHAR
STARTCHAR aeacute
ENCODING 509
SWIDTH 976 0
DWIDTH 20 0
BBX 19 15 0 0
BITMAP
000800
001C00
003800
003000
0F0780
3FBFC0
7FFFE0
71F9C0
60F380
E0F380
E0F700
70FE40
7FFFE0
3FFFE0
1F2F80
ENDCHAR
STARTCHAR Oslashacute
ENCODING 510
SWIDTH 777 0
DWIDTH 16 0
BBX 14 19 1 0
BITMAP
0080
01C0
03C0
0300
0000
0FF8
3FF0
7FF0
F0F8
E1FC
E19C
C31C
C71C
EE1C
EC3C
FC38
7FF0
7FF0
7FC0
ENDCHAR
STARTCHAR oslashacute
ENCODING 511
SWIDTH 579 0
DWIDTH 12 0
BBX 11 16 0 0
BITMAP
0100
0380
0780
0200
0000
0FE0
3FC0
7FC0
73E0
67E0
E6E0
EEE0
7CE0
7BC0
3FC0
7F00
ENDCHAR
STARTCHAR dotlessj
ENCODING 567
SWIDTH 237 0
DWIDTH 5 0
BBX 7 14 -3 -4
BITMAP
0E
0E
0E
0E
0E
0E
0E
0E
0E
0E
1C
FC
F8
F0
ENDCHAR
STARTCHAR circumflex
ENCODING 710
SWIDTH 267 0
DWIDTH 5 0
BBX 5 4 0 10
BITMAP
20
70
F8
48
ENDCHAR
STARTCHAR caron
ENCODING 711
SWIDTH 267 0
DWIDTH 5 0
BBX 5 4 0 10
BITMAP
48
F8
70
20
ENDCHAR
STARTCHAR breve
ENCODING 728
SWIDTH 220 0
DWIDTH 4 0
BBX 4 3 0 11
BITMAP
D0
F0
F0
ENDCHAR
STARTCHAR dotaccent
ENCODING 729
SWIDTH 125 0
DWIDTH 3 0
BBX 2 2 0 11
BITMAP
C0
C0
ENDCHAR
STARTCHAR ring
ENCODING 730
SWIDTH 192 0
DWIDTH 4 0
BBX 4 4 0 10
BITMAP
60
B0
F0
60
ENDCHAR
STARTCHAR ogonek
ENCODING 731
SWIDTH 212 0
DWIDTH 4 0
BBX 4 5 0 -4
BITMAP
20
40
C0
F0
60
ENDCHAR
STARTCHAR tilde
ENCODING 732
SWIDTH 321 0
DWIDTH 6 0
BBX 6 4 0 10
BITMAP
6C
FC
DC
C0
ENDCHAR
STARTCHAR hungarumlaut
ENCODING 733
SWIDTH 384 0
DWIDTH 8 0
BBX 7 5 0 10
BITMAP
20
76
6E
DC
08
ENDCHAR
STARTCHAR uni0312
ENCODING 786
SWIDTH 192 0
DWIDTH 4 0
BBX 2 4 1 11
BITMAP
80
80
C0
C0
ENDCHAR
STARTCHAR uni0315
ENCODING 789
SWIDTH 132 0
DWIDTH 3 0
BBX 3 4 0 10
BITMAP
C0
E0
40
40
ENDCHAR
STARTCHAR uni0326
ENCODING 806
SWIDTH 193 0
DWIDTH 4 0
BBX 2 4 1 -5
BITMAP
C0
C0
C0
C0
ENDCHAR
STARTCHAR pi
ENCODING 960
SWIDTH 555 0
DWIDTH 11 0
BBX 11 10 0 0
BITMAP
FFE0
FFE0
3B80
3B80
3B80
3B80
3B80
3B80
3B80
3B80
ENDCHAR
STARTCHAR Wgrave
ENCODING 7808
SWIDTH 819 0
DWIDTH 16 0
BBX 14 19 1 0
BITMAP
0400
0E00
0F00
0200
0000
E39C
E39C
E39C
E39C
E39C
E39C
E39C
E39C
E39C
E39C
E39C
FFFC
7FF8
3EF0
ENDCHAR
STARTCHAR wgrave
ENCODING 7809
SWIDTH 756 0
DWIDTH 15 0
BBX 13 15 1 0
BITMAP
0800
1C00
1E00
0600
0000
E718
E718
E718
E718
E718
E718
E718
FFB8
7FF8
3DE0
ENDCHAR
STARTCHAR Wacute
ENCODING 7810
SWIDTH 819 0
DWIDTH 16 0
BBX 14 19 1 0
BITMAP
0040
00C0
01C0
0180
0000
E39C
E39C
E39C
E39C
E39C
E39C
E39C
E39C
E39C
E39C
E39C
FFFC
7FF8
3EF0
ENDCHAR
STARTCHAR wacute
ENCODING 7811
SWIDTH 756 0
DWIDTH 15 0
BBX 13 15 1 0
BITMAP
0080
01C0
03C0
0100
0000
E718
E718
E718
E718
E718
E718
E718
FFB8
7FF8
3DE0
ENDCHAR
STARTCHAR Wdieresis
ENCODING 7812
SWIDTH 819 0
DWIDTH 16 0
BBX 14 17 1 0
BITMAP
0CC0
0EC0
0000
E39C
E39C
E39C
E39C
E39C
E39C
E39C
E39C
E39C
E39C
E39C
FFFC
7FF8
3EF0
ENDCHAR
STARTCHAR wdieresis
ENCODING 7813
SWIDTH 756 0
DWIDTH 15 0
BBX 13 14 1 0
BITMAP
0D80
0DC0
0000
0000
E718
E718
E718
E718
E718
E718
E718
FFB8
7FF8
3DE0
ENDCHAR
STARTCHAR Ygrave
ENCODING 7922
SWIDTH 620 0
DWIDTH 12 0
BBX 11 19 1 0
BITMAP
2000
7000
3800
1800
0000
C0E0
C0E0
C0E0
C0E0
C0E0
E0E0
F1C0
7FC0
3F80
1E00
0E00
0E00
0E00
0E00
ENDCHAR
STARTCHAR ygrave
ENCODING 7923
SWIDTH 562 0
DWIDTH 11 0
BBX 9 19 1 -4
BITMAP
2000
7000
7800
1000
0000
E180
E180
E180
E180
E180
E180
E380
F780
7F80
3F80
0380
1F00
1F00
1C00
ENDCHAR
STARTCHAR endash
ENCODING 8211
SWIDTH 418 0
DWIDTH 8 0
BBX 6 2 1 6
BITMAP
FC
FC
ENDCHAR
STARTCHAR emdash
ENCODING 8212
SWIDTH 719 0
DWIDTH 14 0
BBX 12 2 1 6
BITMAP
FFF0
FFF0
ENDCHAR
STARTCHAR quoteleft
ENCODING 8216
SWIDTH 246 0
DWIDTH 5 0
BBX 3 5 1 9
BITMAP
40
C0
E0
E0
E0
ENDCHAR
STARTCHAR quoteright
ENCODING 8217
SWIDTH 245 0
DWIDTH 5 0
BBX 3 5 1 9
BITMAP
E0
E0
E0
60
40
ENDCHAR
STARTCHAR quotesinglbase
ENCODING 8218
SWIDTH 264 0
DWIDTH 5 0
BBX 3 5 1 -2
BITMAP
40
E0
E0
60
60
ENDCHAR
STARTCHAR quotedblleft
ENCODING 8220
SWIDTH 445 0
DWIDTH 9 0
BBX 7 5 1 9
BITMAP
44
CC
EE
EE
EE
ENDCHAR
STARTCHAR quotedblright
ENCODING 8221
SWIDTH 444 0
DWIDTH 9 0
BBX 7 5 1 9
BITMAP
EE
EE
EE
66
44
ENDCHAR
STARTCHAR quotedblbase
ENCODING 8222
SWIDTH 463 0
DWIDTH 9 0
BBX 7 5 1 -2
BITMAP
44
EE
EE
66
66
ENDCHAR
STARTCHAR dagger
ENCODING 8224
SWIDTH 434 0
DWIDTH 9 0
BBX 7 18 1 -2
BITMAP
38
38
38
38
FE
FE
38
38
38
38
38
38
38
38
38
38
38
38
ENDCHAR
STARTCHAR daggerdbl
ENCODING 8225
SWIDTH 452 0
DWIDTH 9 0
BBX 7 18 1 -2
BITMAP
38
38
38
38
FE
FE
38
38
38
38
38
38
FE
FE
38
38
38
38
ENDCHAR
STARTCHAR bullet
ENCODING 8226
SWIDTH 354 0
DWIDTH 7 0
BBX 5 4 1 5
BITMAP
70
F8
78
70
ENDCHAR
STARTCHAR ellipsis
ENCODING 8230
SWIDTH 789 0
DWIDTH 16 0
BBX 14 4 1 -1
BITMAP
4318
E71C
E71C
4318
ENDCHAR
STARTCHAR perthousand
ENCODING 8240
SWIDTH 998 0
DWIDTH 20 0
BBX 18 14 1 0
BITMAP
78E000
F8C000
D98000
C98000
DB0000
FB0000
760000
06E380
0DF7C0
0D36C0
1B36C0
3B36C0
31F7C0
61E380
ENDCHAR
STARTCHAR guilsinglleft
ENCODING 8249
SWIDTH 403 0
DWIDTH 8 0
BBX 6 10 1 0
BITMAP
08
1C
38
70
E0
F0
78
3C
1C
08
ENDCHAR
STARTCHAR guilsinglright
ENCODING 8250
SWIDTH 402 0
DWIDTH 8 0
BBX 6 10 1 0
BITMAP
40
E0
70
38
1C
1C
78
F0
E0
40
ENDCHAR
STARTCHAR fraction
ENCODING 8260
SWIDTH 477 0
DWIDTH 10 0
BBX 9 14 0 0
BITMAP
0180
0180
0300
0300
0600
0600
0C00
1C00
1800
3000
3000
6000
6000
C000
ENDCHAR
STARTCHAR Euro
ENCODING 8364
SWIDTH 806 0
DWIDTH 16 0
BBX 14 14 1 0
BITMAP
03F8
07FC
0FFC
1E08
7F80
7F80
FF80
3800
FF00
FF00
1E08
0FFC
07FC
03F8
ENDCHAR
STARTCHAR trademark
ENCODING 8482
SWIDTH 606 0
DWIDTH 12 0
BBX 10 5 1 9
BITMAP
F7C0
2540
2540
2540
2540
ENDCHAR
STARTCHAR partialdiff
ENCODING 8706
SWIDTH 609 0
DWIDTH 12 0
BBX 10 15 1 0
BITMAP
0E00
0F00
0700
0380
1F80
3F80
7FC0
E1C0
E1C0
C0C0
E0C0
E1C0
FFC0
7F80
3F00
ENDCHAR
STARTCHAR product
ENCODING 8719
SWIDTH 632 0
DWIDTH 13 0
BBX 11 14 1 0
BITMAP
FFE0
FFE0
FFE0
3380
3380
3380
3380
3380
3380
3380
3380
3380
3380
3380
ENDCHAR
STARTCHAR minus
ENCODING 8722
SWIDTH 543 0
DWIDTH 11 0
BBX 9 2 1 6
BITMAP
FF80
FF80
ENDCHAR
STARTCHAR infinity
ENCODING 8734
SWIDTH 771 0
DWIDTH 15 0
BBX 14 9 1 2
BITMAP
3CF0
7FF8
FFF8
E71C
C71C
E798
FFF8
7FF8
38E0
ENDCHAR
STARTCHAR approxequal
ENCODING 8776
SWIDTH 476 0
DWIDTH 10 0
BBX 7 8 1 3
BITMAP
76
FE
DE
64
66
F6
FE
CE
ENDCHAR
STARTCHAR notequal
ENCODING 8800
SWIDTH 512 0
DWIDTH 10 0
BBX 8 12 1 1
BITMAP
06
06
0E
FF
FF
1C
18
FF
FF
30
70
60
ENDCHAR
STARTCHAR fi
ENCODING 64257
SWIDTH 650 0
DWIDTH 13 0
BBX 12 16 0 0
BITMAP
0700
1F70
3F70
3870
3000
3000
FFF0
FFF0
3070
3070
3070
3070
3070
3070
3070
3070
ENDCHAR
STARTCHAR fl
ENCODING 64258
SWIDTH 631 0
DWIDTH 13 0
BBX 12 16 0 0
BITMAP
07F0
1FF0
3FF0
3870
3070
3070
FF70
FF70
3070
3070
3070
3070
3070
3070
3070
3070
ENDCHAR
STARTCHAR .notdef
ENCODING -1
SWIDTH 279 0
DWIDTH 6 0
BBX 1 1 0 0
BITMAP
00
ENDCHAR
STARTCHAR .null
ENCODING -1
SWIDTH 0 0
DWIDTH 0 0
BBX 1 1 0 0
BITMAP
00
ENDCHAR
STARTCHAR nonmarkingreturn
ENCODING -1
SWIDTH 279 0
DWIDTH 6 0
BBX 1 1 0 0
BITMAP
00
ENDCHAR
ENDFONT
